<svg xmlns="http://www.w3.org/2000/svg" width="1500" height="1500" viewBox="0 0 1500 1500" fill="none">
<g clip-path="url(#clip0_4_818)">
<rect width="1500" height="1500" fill="white"/>
<rect width="1500" height="1500" fill="#E6E6E6"/>
<path d="M700 130C700 113.431 713.431 100 730 100H800V200H700V130Z" fill="#1088D6" stroke="black" stroke-width="2"/>
<path d="M800 100H885C893.284 100 900 106.716 900 115V185C900 193.284 893.284 200 885 200H800V100Z" fill="#1088D6" stroke="black" stroke-width="2"/>
<path d="M826.989 181.154C826.103 183.906 829.237 186.196 831.589 184.516L845.965 174.239C848.402 172.497 851.678 172.499 854.113 174.244L868.396 184.481C870.752 186.17 873.895 183.867 872.995 181.111L867.645 164.739C866.7 161.846 867.731 158.674 870.198 156.892L884.239 146.743C886.594 145.041 885.396 141.321 882.491 141.313L864.933 141.26C861.92 141.251 859.25 139.314 858.306 136.451L852.884 119.998C851.978 117.253 848.095 117.25 847.186 119.994L841.721 136.494C840.774 139.355 838.101 141.289 835.087 141.293L817.586 141.319C814.676 141.324 813.476 145.052 815.837 146.753L829.75 156.776C832.214 158.551 833.252 161.712 832.321 164.603L826.989 181.154Z" stroke="#8FD3FF" stroke-width="4"/>
<rect x="700" y="200" width="100" height="100" fill="#1088D6" stroke="black" stroke-width="2"/>
<rect x="600" y="300" width="100" height="100" fill="#F5F5F5" stroke="black" stroke-width="2"/>
<rect x="700" y="300" width="100" height="100" fill="#1088D6" stroke="black" stroke-width="2"/>
<rect x="600" y="400" width="100" height="100" fill="#F5F5F5" stroke="black" stroke-width="2"/>
<rect x="700" y="400" width="100" height="100" fill="#1088D6" stroke="black" stroke-width="2"/>
<path d="M600 500H700V585C700 593.284 693.284 600 685 600H615C606.716 600 600 593.284 600 585V500Z" fill="#F5F5F5" stroke="black" stroke-width="2"/>
<path d="M700 500H800V585C800 593.284 793.284 600 785 600H715C706.716 600 700 593.284 700 585V500Z" fill="#1088D6" stroke="black" stroke-width="2"/>
<rect x="400" y="600" width="100" height="100" fill="#F5F5F5" stroke="black" stroke-width="2"/>
<path d="M500 600H585C593.284 600 600 606.716 600 615V685C600 693.284 593.284 700 585 700H500V600Z" fill="#F5F5F5" stroke="black" stroke-width="2"/>
<path d="M1400 600H1485C1493.28 600 1500 606.716 1500 615V700H1415C1406.72 700 1400 693.284 1400 685V600Z" fill="#F5F5F5" stroke="black" stroke-width="2"/>
<path d="M100 785C100 793.284 93.2843 800 85 800H0V700H100V785Z" fill="#F5F5F5" stroke="black" stroke-width="2"/>
<path d="M16.5001 785C16.5001 763.737 33.7372 746.5 55.0001 746.5H76.6925L68.383 738.19C67.0162 736.824 67.0162 734.608 68.383 733.241C69.7498 731.874 71.9653 731.874 73.3322 733.241L87.4748 747.383C88.8416 748.75 88.8416 750.966 87.4748 752.333L73.3322 766.475C71.9653 767.841 69.7498 767.841 68.383 766.475C67.0162 765.108 67.0162 762.892 68.383 761.525L76.4074 753.5H55.0001C37.6032 753.5 23.5001 767.603 23.5001 785V800H16.5001V785Z" fill="#CCCCCC"/>
<path d="M100 785C100 793.284 93.2843 800 85 800H0V700H100V785Z" stroke="black" stroke-width="2"/>
<path d="M100 700H200V800H130C113.431 800 100 786.569 100 770V700Z" fill="#F5CC01" stroke="black" stroke-width="2"/>
<path d="M200 700H300V800H200V700Z" fill="#F5CC01" stroke="black" stroke-width="2"/>
<rect x="300" y="700" width="100" height="100" fill="#F5CC01" stroke="black" stroke-width="2"/>
<rect x="400" y="700" width="100" height="100" fill="#F5CC01" stroke="black" stroke-width="2"/>
<path d="M500 700H585C593.284 700 600 706.716 600 715V785C600 793.284 593.284 800 585 800H500V700Z" fill="#F5CC01" stroke="black" stroke-width="2"/>
<path d="M900 715C900 706.716 906.716 700 915 700H1000V800H915C906.716 800 900 793.284 900 785V715Z" fill="#D43230" stroke="black" stroke-width="2"/>
<rect x="1000" y="700" width="100" height="100" fill="#D43230" stroke="black" stroke-width="2"/>
<rect x="1100" y="700" width="100" height="100" fill="#D43230" stroke="black" stroke-width="2"/>
<rect x="1200" y="700" width="100" height="100" fill="#D43230" stroke="black" stroke-width="2"/>
<path d="M1300 700H1370C1386.57 700 1400 713.431 1400 730V800H1300V700Z" fill="#D43230" stroke="black" stroke-width="2"/>
<path d="M1400 715C1400 706.716 1406.72 700 1415 700H1500V800H1400V715Z" fill="#F5F5F5" stroke="black" stroke-width="2"/>
<path d="M1483.5 715C1483.5 736.263 1466.26 753.5 1445 753.5H1423.31L1431.62 761.81C1432.98 763.176 1432.98 765.392 1431.62 766.759C1430.25 768.126 1428.03 768.126 1426.67 766.759L1412.52 752.617C1411.16 751.25 1411.16 749.034 1412.52 747.667L1426.67 733.525C1428.03 732.159 1430.25 732.159 1431.62 733.525C1432.98 734.892 1432.98 737.108 1431.62 738.475L1423.59 746.5H1445C1462.4 746.5 1476.5 732.397 1476.5 715V700H1483.5V715Z" fill="#CCCCCC"/>
<path d="M1400 715C1400 706.716 1406.72 700 1415 700H1500V800H1400V715Z" stroke="black" stroke-width="2"/>
<path d="M0 800H85C93.2843 800 100 806.716 100 815V900H15C6.71573 900 0 893.284 0 885V800Z" fill="#F5F5F5" stroke="black" stroke-width="2"/>
<path d="M100 815C100 806.716 106.716 800 115 800H200V900H100V815Z" fill="#F5F5F5" stroke="black" stroke-width="2"/>
<rect x="200" y="800" width="100" height="100" fill="#F5F5F5" stroke="black" stroke-width="2"/>
<path d="M226.989 881.154C226.102 883.906 229.237 886.196 231.588 884.516L245.964 874.239C248.402 872.497 251.678 872.499 254.113 874.244L268.396 884.481C270.752 886.17 273.895 883.867 272.995 881.111L267.645 864.739C266.7 861.846 267.731 858.674 270.198 856.892L284.239 846.743C286.594 845.041 285.396 841.321 282.491 841.312L264.933 841.26C261.919 841.251 259.25 839.314 258.306 836.451L252.883 819.998C251.978 817.253 248.095 817.25 247.186 819.994L241.721 836.494C240.773 839.355 238.1 841.288 235.086 841.293L217.585 841.319C214.676 841.324 213.476 845.052 215.836 846.753L229.75 856.776C232.213 858.551 233.252 861.712 232.321 864.603L226.989 881.154Z" stroke="#CCCCCC" stroke-width="4"/>
<rect x="300" y="800" width="100" height="100" fill="#F5F5F5" stroke="black" stroke-width="2"/>
<rect x="400" y="800" width="100" height="100" fill="#F5F5F5" stroke="black" stroke-width="2"/>
<path d="M500 800H585C593.284 800 600 806.716 600 815V885C600 893.284 593.284 900 585 900H500V800Z" fill="#F5F5F5" stroke="black" stroke-width="2"/>
<path d="M900 815C900 806.716 906.716 800 915 800H1000V900H915C906.716 900 900 893.284 900 885V815Z" fill="#F5F5F5" stroke="black" stroke-width="2"/>
<rect x="1000" y="800" width="100" height="100" fill="#F5F5F5" stroke="black" stroke-width="2"/>
<rect x="1100" y="800" width="100" height="100" fill="#F5F5F5" stroke="black" stroke-width="2"/>
<path d="M1200 800H1285C1293.28 800 1300 806.716 1300 815V885C1300 893.284 1293.28 900 1285 900H1200V800Z" fill="#F5F5F5" stroke="black" stroke-width="2"/>
<path d="M1300 800H1400V885C1400 893.284 1393.28 900 1385 900H1315C1306.72 900 1300 893.284 1300 885V800Z" fill="#D43230" stroke="black" stroke-width="2"/>
<path d="M1326.99 881.154C1326.1 883.906 1329.24 886.196 1331.59 884.516L1345.96 874.239C1348.4 872.497 1351.68 872.499 1354.11 874.244L1368.4 884.481C1370.75 886.17 1373.9 883.867 1372.99 881.111L1367.65 864.739C1366.7 861.846 1367.73 858.674 1370.2 856.892L1384.24 846.743C1386.59 845.041 1385.4 841.321 1382.49 841.312L1364.93 841.26C1361.92 841.251 1359.25 839.314 1358.31 836.451L1352.88 819.998C1351.98 817.253 1348.1 817.25 1347.19 819.994L1341.72 836.494C1340.77 839.355 1338.1 841.288 1335.09 841.293L1317.59 841.319C1314.68 841.324 1313.48 845.052 1315.84 846.753L1329.75 856.776C1332.21 858.551 1333.25 861.712 1332.32 864.603L1326.99 881.154Z" stroke="#FFA4A3" stroke-width="4"/>
<path d="M1400 800H1500V885C1500 893.284 1493.28 900 1485 900H1415C1406.72 900 1400 893.284 1400 885V800Z" fill="#F5F5F5" stroke="black" stroke-width="2"/>
<path d="M600 915C600 906.716 606.716 900 615 900H685C693.284 900 700 906.716 700 915V1000H600V915Z" fill="#F5F5F5" stroke="black" stroke-width="2"/>
<path d="M700 915C700 906.716 706.716 900 715 900H785C793.284 900 800 906.716 800 915V1000H700V915Z" fill="#229746" stroke="black" stroke-width="2"/>
<rect x="800" y="900" width="100" height="100" rx="15" fill="#F5F5F5" stroke="black" stroke-width="2"/>
<rect x="600" y="1000" width="100" height="100" fill="#F5F5F5" stroke="black" stroke-width="2"/>
<rect x="700" y="1000" width="100" height="100" fill="#229746" stroke="black" stroke-width="2"/>
<rect x="800" y="1000" width="100" height="100" fill="#F5F5F5" stroke="black" stroke-width="2"/>
<rect x="600" y="1100" width="100" height="100" fill="#F5F5F5" stroke="black" stroke-width="2"/>
<rect x="700" y="1100" width="100" height="100" fill="#229746" stroke="black" stroke-width="2"/>
<rect x="800" y="1100" width="100" height="100" fill="#F5F5F5" stroke="black" stroke-width="2"/>
<path d="M600 1200H700V1285C700 1293.28 693.284 1300 685 1300H615C606.716 1300 600 1293.28 600 1285V1200Z" fill="#F5F5F5" stroke="black" stroke-width="2"/>
<path d="M700 1200H800V1300H715C706.716 1300 700 1293.28 700 1285V1200Z" fill="#229746" stroke="black" stroke-width="2"/>
<path d="M800 1300H900V1400H815C806.716 1400 800 1393.28 800 1385V1300Z" fill="#F5F5F5" stroke="black" stroke-width="2"/>
<path d="M600 1315C600 1306.72 606.716 1300 615 1300H700V1400H615C606.716 1400 600 1393.28 600 1385V1315Z" fill="#229746" stroke="black" stroke-width="2"/>
<path d="M626.989 1381.15C626.103 1383.91 629.237 1386.2 631.589 1384.52L645.965 1374.24C648.402 1372.5 651.678 1372.5 654.113 1374.24L668.396 1384.48C670.752 1386.17 673.895 1383.87 672.995 1381.11L667.645 1364.74C666.7 1361.85 667.731 1358.67 670.198 1356.89L684.239 1346.74C686.594 1345.04 685.396 1341.32 682.491 1341.31L664.933 1341.26C661.92 1341.25 659.25 1339.31 658.306 1336.45L652.884 1320C651.978 1317.25 648.095 1317.25 647.186 1319.99L641.721 1336.49C640.774 1339.36 638.101 1341.29 635.087 1341.29L617.586 1341.32C614.676 1341.32 613.476 1345.05 615.837 1346.75L629.75 1356.78C632.214 1358.55 633.252 1361.71 632.321 1364.6L626.989 1381.15Z" stroke="#87D49F" stroke-width="4"/>
<path d="M600 1415C600 1406.72 606.716 1400 615 1400H700V1500H615C606.716 1500 600 1493.28 600 1485V1415Z" fill="#F5F5F5" stroke="black" stroke-width="2"/>
<path d="M785 1400C793.284 1400 800 1406.72 800 1415V1500H700V1400H785Z" fill="#F5F5F5" stroke="black" stroke-width="2"/>
<path d="M785 1483.5C763.737 1483.5 746.5 1466.26 746.5 1445V1423.31L738.19 1431.62C736.824 1432.98 734.608 1432.98 733.241 1431.62C731.874 1430.25 731.874 1428.03 733.241 1426.67L747.383 1412.53C748.75 1411.16 750.966 1411.16 752.333 1412.53L766.475 1426.67C767.841 1428.03 767.841 1430.25 766.475 1431.62C765.108 1432.98 762.892 1432.98 761.525 1431.62L753.5 1423.59V1445C753.5 1462.4 767.603 1476.5 785 1476.5H800V1483.5H785Z" fill="#CCCCCC"/>
<path d="M785 1400C793.284 1400 800 1406.72 800 1415V1500H700V1400H785Z" stroke="black" stroke-width="2"/>
<path d="M800 1415C800 1406.72 806.716 1400 815 1400H900V1485C900 1493.28 893.284 1500 885 1500H800V1415Z" fill="#F5F5F5" stroke="black" stroke-width="2"/>
<path d="M0 0H585C593.284 0 600 6.71573 600 15V500C600 555.228 555.228 600 500 600H15C6.71571 600 0 593.284 0 585V0Z" fill="#F5CC01"/>
<path d="M0 0H585C593.284 0 600 6.71573 600 15V500C600 555.228 555.228 600 500 600H15C6.71571 600 0 593.284 0 585V0Z" stroke="black" stroke-width="2"/>
<rect x="50" y="50" width="500" height="500" rx="100" stroke="white" stroke-width="5"/>
<rect x="100" y="100" width="400" height="400" rx="100" fill="white"/>
<circle cx="225" cy="225" r="50" fill="#F5CC01"/>
<circle cx="375" cy="225" r="50" fill="#F5CC01"/>
<circle cx="225" cy="375" r="50" fill="#F5CC01"/>
<circle cx="375" cy="375" r="50" fill="#F5CC01"/>
<path d="M900 15C900 6.71571 906.716 0 915 0H1500V585C1500 593.284 1493.28 600 1485 600H1000C944.772 600 900 555.228 900 500V15Z" fill="#1088D6"/>
<path d="M900 15C900 6.71571 906.716 0 915 0H1500V585C1500 593.284 1493.28 600 1485 600H1000C944.772 600 900 555.228 900 500V15Z" stroke="black" stroke-width="2"/>
<rect x="950" y="50" width="500" height="500" rx="100" stroke="white" stroke-width="5"/>
<rect x="1000" y="100" width="400" height="400" rx="100" fill="white"/>
<circle cx="1125" cy="225" r="50" fill="#1088D6"/>
<circle cx="1275" cy="225" r="50" fill="#1088D6"/>
<circle cx="1125" cy="375" r="50" fill="#1088D6"/>
<circle cx="1275" cy="375" r="50" fill="#1088D6"/>
<path d="M900 1000C900 944.772 944.772 900 1000 900H1485C1493.28 900 1500 906.716 1500 915V1500H915C906.716 1500 900 1493.28 900 1485V1000Z" fill="#D43230"/>
<path d="M900 1000C900 944.772 944.772 900 1000 900H1485C1493.28 900 1500 906.716 1500 915V1500H915C906.716 1500 900 1493.28 900 1485V1000Z" stroke="black" stroke-width="2"/>
<rect x="950" y="950" width="500" height="500" rx="100" stroke="white" stroke-width="5"/>
<rect x="1000" y="1000" width="400" height="400" rx="100" fill="white"/>
<circle cx="1125" cy="1125" r="50" fill="#D43230"/>
<circle cx="1275" cy="1125" r="50" fill="#D43230"/>
<circle cx="1125" cy="1275" r="50" fill="#D43230"/>
<circle cx="1275" cy="1275" r="50" fill="#D43230"/>
<path d="M0 915C0 906.716 6.71573 900 15 900H500C555.228 900 600 944.772 600 1000V1485C600 1493.28 593.284 1500 585 1500H0V915Z" fill="#229746"/>
<path d="M0 915C0 906.716 6.71573 900 15 900H500C555.228 900 600 944.772 600 1000V1485C600 1493.28 593.284 1500 585 1500H0V915Z" stroke="black" stroke-width="2"/>
<rect x="50" y="950" width="500" height="500" rx="100" stroke="white" stroke-width="5"/>
<rect x="100" y="1000" width="400" height="400" rx="100" fill="white"/>
<circle cx="225" cy="1125" r="50" fill="#229746"/>
<circle cx="375" cy="1125" r="50" fill="#229746"/>
<circle cx="225" cy="1275" r="50" fill="#229746"/>
<circle cx="375" cy="1275" r="50" fill="#229746"/>
<g clip-path="url(#clip1_4_818)">
<path d="M600 900L750 750L600 600V900Z" fill="#F5CC01"/>
<path d="M600 600L750 750L900 600H600Z" fill="#1088D6"/>
<path d="M900 600L750 750L900 900V600Z" fill="#D43230"/>
<path d="M900 900L750 750L600 900H900Z" fill="#229746"/>
</g>
<rect x="600" y="600" width="300" height="300" rx="30" stroke="black" stroke-width="2"/>
<rect x="800" y="1200" width="100" height="100" fill="#F5F5F5" stroke="black" stroke-width="2"/>
<path d="M826.989 1281.15C826.103 1283.91 829.237 1286.2 831.589 1284.52L845.965 1274.24C848.402 1272.5 851.678 1272.5 854.113 1274.24L868.396 1284.48C870.752 1286.17 873.895 1283.87 872.995 1281.11L867.645 1264.74C866.7 1261.85 867.731 1258.67 870.198 1256.89L884.239 1246.74C886.594 1245.04 885.396 1241.32 882.491 1241.31L864.933 1241.26C861.92 1241.25 859.25 1239.31 858.306 1236.45L852.884 1220C851.978 1217.25 848.095 1217.25 847.186 1219.99L841.721 1236.49C840.774 1239.36 838.101 1241.29 835.087 1241.29L817.586 1241.32C814.676 1241.32 813.476 1245.05 815.837 1246.75L829.75 1256.78C832.214 1258.55 833.252 1261.71 832.321 1264.6L826.989 1281.15Z" stroke="#CCCCCC" stroke-width="4"/>
<path d="M700 1300H800V1370C800 1386.57 786.569 1400 770 1400H700V1300Z" fill="#229746" stroke="black" stroke-width="2"/>
<path d="M0 615C0 606.716 6.71573 600 15 600H85C93.2843 600 100 606.716 100 615V700H0V615Z" fill="#F5F5F5" stroke="black" stroke-width="2"/>
<path d="M100 615C100 606.716 106.716 600 115 600H185C193.284 600 200 606.716 200 615V700H100V615Z" fill="#F5CC01" stroke="black" stroke-width="2"/>
<path d="M126.989 681.154C126.102 683.906 129.237 686.196 131.588 684.516L145.964 674.239C148.402 672.497 151.678 672.499 154.113 674.244L168.396 684.481C170.752 686.17 173.895 683.867 172.995 681.111L167.645 664.739C166.7 661.846 167.731 658.674 170.198 656.892L184.239 646.743C186.594 645.041 185.396 641.321 182.491 641.312L164.933 641.26C161.919 641.251 159.25 639.314 158.306 636.451L152.883 619.998C151.978 617.253 148.095 617.25 147.186 619.994L141.721 636.494C140.773 639.355 138.1 641.288 135.086 641.293L117.585 641.319C114.676 641.324 113.476 645.052 115.836 646.753L129.75 656.776C132.213 658.551 133.252 661.712 132.321 664.603L126.989 681.154Z" stroke="#FFEE99" stroke-width="4"/>
<path d="M200 615C200 606.716 206.716 600 215 600H300V700H215C206.716 700 200 693.284 200 685V615Z" fill="#F5F5F5" stroke="black" stroke-width="2"/>
<rect x="300" y="600" width="100" height="100" fill="#F5F5F5" stroke="black" stroke-width="2"/>
<path d="M600 15C600 6.71573 606.716 0 615 0H700V85C700 93.2843 693.284 100 685 100H600V15Z" fill="#F5F5F5" stroke="black" stroke-width="2"/>
<path d="M715 100C706.716 100 700 93.2843 700 85V0H800V100H715Z" fill="#F5F5F5" stroke="black" stroke-width="2"/>
<path d="M715 16.5003C736.263 16.5003 753.5 33.7374 753.5 55.0003V76.6927L761.81 68.3832C763.176 67.0164 765.392 67.0164 766.759 68.3832C768.126 69.75 768.126 71.9655 766.759 73.3324L752.617 87.4749C751.25 88.8418 749.034 88.8418 747.667 87.4749L733.525 73.3324C732.159 71.9655 732.159 69.75 733.525 68.3832C734.892 67.0164 737.108 67.0164 738.475 68.3832L746.5 76.4076V55.0003C746.5 37.6034 732.397 23.5003 715 23.5003H700V16.5003H715Z" fill="#CCCCCC"/>
<path d="M715 100C706.716 100 700 93.2843 700 85V0H800V100H715Z" stroke="black" stroke-width="2"/>
<path d="M800 0H885C893.284 0 900 6.71573 900 15V85C900 93.2843 893.284 100 885 100H800V0Z" fill="#F5F5F5" stroke="black" stroke-width="2"/>
<path d="M600 100H685C693.284 100 700 106.716 700 115V200H600V100Z" fill="#F5F5F5" stroke="black" stroke-width="2"/>
<rect x="600" y="200" width="100" height="100" fill="#F5F5F5" stroke="black" stroke-width="2"/>
<path d="M626.989 281.154C626.102 283.906 629.237 286.196 631.588 284.516L645.964 274.239C648.402 272.497 651.678 272.499 654.113 274.244L668.396 284.481C670.752 286.17 673.895 283.867 672.995 281.111L667.645 264.739C666.7 261.846 667.731 258.674 670.198 256.892L684.239 246.743C686.594 245.041 685.396 241.321 682.491 241.313L664.933 241.26C661.919 241.251 659.25 239.314 658.306 236.451L652.883 219.998C651.978 217.253 648.095 217.25 647.186 219.994L641.721 236.494C640.773 239.355 638.1 241.289 635.086 241.293L617.585 241.319C614.676 241.324 613.476 245.052 615.836 246.753L629.75 256.776C632.213 258.551 633.252 261.712 632.321 264.603L626.989 281.154Z" stroke="#CCCCCC" stroke-width="4"/>
<path d="M800 215C800 206.716 806.716 200 815 200H885C893.284 200 900 206.716 900 215V300H800V215Z" fill="#F5F5F5" stroke="black" stroke-width="2"/>
<rect x="800" y="300" width="100" height="100" fill="#F5F5F5" stroke="black" stroke-width="2"/>
<rect x="800" y="400" width="100" height="100" fill="#F5F5F5" stroke="black" stroke-width="2"/>
<path d="M800 500H900V585C900 593.284 893.284 600 885 600H815C806.716 600 800 593.284 800 585V500Z" fill="#F5F5F5" stroke="black" stroke-width="2"/>
<path d="M900 615C900 606.716 906.716 600 915 600H1000V700H915C906.716 700 900 693.284 900 685V615Z" fill="#F5F5F5" stroke="black" stroke-width="2"/>
<rect x="1000" y="600" width="100" height="100" fill="#F5F5F5" stroke="black" stroke-width="2"/>
<rect x="1100" y="600" width="100" height="100" fill="#F5F5F5" stroke="black" stroke-width="2"/>
<rect x="1200" y="600" width="100" height="100" fill="#F5F5F5" stroke="black" stroke-width="2"/>
<path d="M1226.99 681.154C1226.1 683.906 1229.24 686.196 1231.59 684.516L1245.96 674.239C1248.4 672.497 1251.68 672.499 1254.11 674.244L1268.4 684.481C1270.75 686.17 1273.9 683.867 1272.99 681.111L1267.65 664.739C1266.7 661.846 1267.73 658.674 1270.2 656.892L1284.24 646.743C1286.59 645.041 1285.4 641.321 1282.49 641.312L1264.93 641.26C1261.92 641.251 1259.25 639.314 1258.31 636.451L1252.88 619.998C1251.98 617.253 1248.1 617.25 1247.19 619.994L1241.72 636.494C1240.77 639.355 1238.1 641.288 1235.09 641.293L1217.59 641.319C1214.68 641.324 1213.48 645.052 1215.84 646.753L1229.75 656.776C1232.21 658.551 1233.25 661.712 1232.32 664.603L1226.99 681.154Z" stroke="#CCCCCC" stroke-width="4"/>
<path d="M1300 600H1400V685C1400 693.284 1393.28 700 1385 700H1300V600Z" fill="#F5F5F5" stroke="black" stroke-width="2"/>
</g>
<defs>
<clipPath id="clip0_4_818">
<rect width="1500" height="1500" fill="white"/>
</clipPath>
<clipPath id="clip1_4_818">
<rect x="600" y="600" width="300" height="300" rx="30" fill="white"/>
</clipPath>
</defs>
</svg>
