<svg width="1500" height="1500" viewBox="0 0 1500 1500" fill="none" xmlns="http://www.w3.org/2000/svg">
<g clip-path="url(#clip0_4_818)">
<rect width="1500" height="1500" fill="white"/>
<rect x="600" width="100" height="100" stroke="black" stroke-width="2"/>
<path d="M715 16.5004C736.263 16.5004 753.5 33.7374 753.5 55.0003V76.6927L761.81 68.3832C763.176 67.0164 765.392 67.0164 766.759 68.3832C768.126 69.75 768.126 71.9655 766.759 73.3324L752.617 87.475C751.25 88.8418 749.034 88.8418 747.667 87.475L733.525 73.3324C732.159 71.9655 732.159 69.75 733.525 68.3832C734.892 67.0164 737.108 67.0164 738.475 68.3832L746.5 76.4076V55.0003C746.5 37.6034 732.397 23.5004 715 23.5004H700V16.5004H715Z" fill="#CCCCCC"/>
<rect x="700" y="100" width="100" height="100" transform="rotate(-90 700 100)" stroke="black" stroke-width="2"/>
<rect x="800" width="100" height="100" stroke="black" stroke-width="2"/>
<rect x="600" y="100" width="100" height="100" stroke="black" stroke-width="2"/>
<path d="M700 130C700 113.431 713.431 100 730 100H800V200H700V130Z" fill="#1088D6" stroke="black" stroke-width="2"/>
<rect x="800" y="100" width="100" height="100" fill="#1088D6" stroke="black" stroke-width="2"/>
<path d="M826.989 181.154C826.103 183.906 829.237 186.196 831.589 184.516L845.965 174.239C848.402 172.497 851.678 172.499 854.113 174.244L868.396 184.481C870.752 186.17 873.895 183.867 872.995 181.111L867.645 164.739C866.7 161.846 867.731 158.674 870.198 156.892L884.239 146.743C886.594 145.041 885.396 141.321 882.491 141.312L864.933 141.26C861.92 141.251 859.25 139.314 858.306 136.451L852.884 119.998C851.978 117.253 848.095 117.25 847.186 119.994L841.721 136.494C840.774 139.355 838.101 141.288 835.087 141.293L817.586 141.319C814.676 141.324 813.476 145.052 815.837 146.753L829.75 156.776C832.214 158.551 833.252 161.712 832.321 164.603L826.989 181.154Z" stroke="#B3E1FF" stroke-width="4"/>
<path d="M626.989 281.154C626.103 283.906 629.237 286.196 631.589 284.516L645.965 274.239C648.402 272.497 651.678 272.499 654.113 274.244L668.396 284.481C670.752 286.17 673.895 283.867 672.995 281.111L667.645 264.739C666.7 261.846 667.731 258.674 670.198 256.892L684.239 246.743C686.594 245.041 685.396 241.321 682.491 241.312L664.933 241.26C661.92 241.251 659.25 239.314 658.306 236.451L652.884 219.998C651.978 217.253 648.095 217.25 647.186 219.994L641.721 236.494C640.774 239.355 638.101 241.288 635.087 241.293L617.586 241.319C614.676 241.324 613.476 245.052 615.837 246.753L629.75 256.776C632.214 258.551 633.252 261.712 632.321 264.603L626.989 281.154Z" stroke="#CCCCCC" stroke-width="4"/>
<rect x="600" y="200" width="100" height="100" stroke="black" stroke-width="2"/>
<rect x="700" y="200" width="100" height="100" fill="#1088D6" stroke="black" stroke-width="2"/>
<rect x="800" y="200" width="100" height="100" stroke="black" stroke-width="2"/>
<rect x="600" y="300" width="100" height="100" stroke="black" stroke-width="2"/>
<rect x="700" y="300" width="100" height="100" fill="#1088D6" stroke="black" stroke-width="2"/>
<rect x="800" y="300" width="100" height="100" stroke="black" stroke-width="2"/>
<rect x="600" y="400" width="100" height="100" stroke="black" stroke-width="2"/>
<rect x="700" y="400" width="100" height="100" fill="#1088D6" stroke="black" stroke-width="2"/>
<rect x="800" y="400" width="100" height="100" stroke="black" stroke-width="2"/>
<rect x="600" y="500" width="100" height="100" stroke="black" stroke-width="2"/>
<rect x="700" y="500" width="100" height="100" fill="#1088D6" stroke="black" stroke-width="2"/>
<rect x="800" y="500" width="100" height="100" stroke="black" stroke-width="2"/>
<rect y="600" width="100" height="100" stroke="black" stroke-width="2"/>
<rect x="100" y="600" width="100" height="100" fill="#F5CC01" stroke="black" stroke-width="2"/>
<path d="M126.989 681.154C126.103 683.906 129.237 686.196 131.589 684.516L145.965 674.239C148.402 672.497 151.678 672.499 154.113 674.244L168.396 684.481C170.752 686.17 173.895 683.867 172.995 681.111L167.645 664.739C166.7 661.846 167.731 658.674 170.198 656.892L184.239 646.743C186.594 645.041 185.396 641.321 182.491 641.312L164.933 641.26C161.92 641.251 159.25 639.314 158.306 636.451L152.884 619.998C151.978 617.253 148.095 617.25 147.186 619.994L141.721 636.494C140.774 639.355 138.101 641.288 135.087 641.293L117.586 641.319C114.676 641.324 113.476 645.052 115.837 646.753L129.75 656.776C132.214 658.551 133.252 661.712 132.321 664.603L126.989 681.154Z" stroke="#FFF0B3" stroke-width="4"/>
<rect x="200" y="600" width="100" height="100" stroke="black" stroke-width="2"/>
<rect x="300" y="600" width="100" height="100" stroke="black" stroke-width="2"/>
<rect x="400" y="600" width="100" height="100" stroke="black" stroke-width="2"/>
<rect x="500" y="600" width="100" height="100" stroke="black" stroke-width="2"/>
<rect x="900" y="600" width="100" height="100" stroke="black" stroke-width="2"/>
<rect x="1000" y="600" width="100" height="100" stroke="black" stroke-width="2"/>
<rect x="1100" y="600" width="100" height="100" stroke="black" stroke-width="2"/>
<path d="M1226.99 681.154C1226.1 683.906 1229.24 686.196 1231.59 684.516L1245.96 674.239C1248.4 672.497 1251.68 672.499 1254.11 674.244L1268.4 684.481C1270.75 686.17 1273.9 683.867 1272.99 681.111L1267.65 664.739C1266.7 661.846 1267.73 658.674 1270.2 656.892L1284.24 646.743C1286.59 645.041 1285.4 641.321 1282.49 641.312L1264.93 641.26C1261.92 641.251 1259.25 639.314 1258.31 636.451L1252.88 619.998C1251.98 617.253 1248.1 617.25 1247.19 619.994L1241.72 636.494C1240.77 639.355 1238.1 641.288 1235.09 641.293L1217.59 641.319C1214.68 641.324 1213.48 645.052 1215.84 646.753L1229.75 656.776C1232.21 658.551 1233.25 661.712 1232.32 664.603L1226.99 681.154Z" stroke="#CCCCCC" stroke-width="4"/>
<rect x="1200" y="600" width="100" height="100" stroke="black" stroke-width="2"/>
<rect x="1300" y="600" width="100" height="100" stroke="black" stroke-width="2"/>
<rect x="1400" y="600" width="100" height="100" stroke="black" stroke-width="2"/>
<path d="M16.5003 785C16.5003 763.737 33.7373 746.5 55.0003 746.5H76.6926L68.3831 738.19C67.0163 736.824 67.0164 734.608 68.3831 733.241C69.7499 731.874 71.9655 731.874 73.3323 733.241L87.4749 747.383C88.8417 748.75 88.8417 750.966 87.4749 752.333L73.3323 766.475C71.9655 767.841 69.7499 767.841 68.3831 766.475C67.0163 765.108 67.0163 762.892 68.3831 761.525L76.4075 753.5H55.0003C37.6033 753.5 23.5003 767.603 23.5003 785V800H16.5003V785Z" fill="#CCCCCC"/>
<rect x="100" y="800" width="100" height="100" transform="rotate(180 100 800)" stroke="black" stroke-width="2"/>
<path d="M100 700H200V800H130C113.431 800 100 786.569 100 770V700Z" fill="#F5CC01" stroke="black" stroke-width="2"/>
<rect x="200" y="700" width="100" height="100" fill="#F5CC01" stroke="black" stroke-width="2"/>
<rect x="300" y="700" width="100" height="100" fill="#F5CC01" stroke="black" stroke-width="2"/>
<rect x="400" y="700" width="100" height="100" fill="#F5CC01" stroke="black" stroke-width="2"/>
<rect x="500" y="700" width="100" height="100" fill="#F5CC01" stroke="black" stroke-width="2"/>
<rect x="900" y="700" width="100" height="100" fill="#D43230" stroke="black" stroke-width="2"/>
<rect x="1000" y="700" width="100" height="100" fill="#D43230" stroke="black" stroke-width="2"/>
<rect x="1100" y="700" width="100" height="100" fill="#D43230" stroke="black" stroke-width="2"/>
<rect x="1200" y="700" width="100" height="100" fill="#D43230" stroke="black" stroke-width="2"/>
<path d="M1300 700H1370C1386.57 700 1400 713.431 1400 730V800H1300V700Z" fill="#D43230" stroke="black" stroke-width="2"/>
<path d="M1483.5 715C1483.5 736.263 1466.26 753.5 1445 753.5H1423.31L1431.62 761.81C1432.98 763.176 1432.98 765.392 1431.62 766.759C1430.25 768.126 1428.03 768.126 1426.67 766.759L1412.53 752.617C1411.16 751.25 1411.16 749.034 1412.53 747.667L1426.67 733.525C1428.03 732.159 1430.25 732.159 1431.62 733.525C1432.98 734.892 1432.98 737.108 1431.62 738.475L1423.59 746.5H1445C1462.4 746.5 1476.5 732.397 1476.5 715V700H1483.5V715Z" fill="#CCCCCC"/>
<rect x="1400" y="700" width="100" height="100" stroke="black" stroke-width="2"/>
<rect y="800" width="100" height="100" stroke="black" stroke-width="2"/>
<rect x="100" y="800" width="100" height="100" stroke="black" stroke-width="2"/>
<path d="M226.989 881.154C226.103 883.906 229.237 886.196 231.589 884.516L245.965 874.239C248.402 872.497 251.678 872.499 254.113 874.244L268.396 884.481C270.752 886.17 273.895 883.867 272.995 881.111L267.645 864.739C266.7 861.846 267.731 858.674 270.198 856.892L284.239 846.743C286.594 845.041 285.396 841.321 282.491 841.312L264.933 841.26C261.92 841.251 259.25 839.314 258.306 836.451L252.884 819.998C251.978 817.253 248.095 817.25 247.186 819.994L241.721 836.494C240.774 839.355 238.101 841.288 235.087 841.293L217.586 841.319C214.676 841.324 213.476 845.052 215.837 846.753L229.75 856.776C232.214 858.551 233.252 861.712 232.321 864.603L226.989 881.154Z" stroke="#CCCCCC" stroke-width="4"/>
<rect x="200" y="800" width="100" height="100" stroke="black" stroke-width="2"/>
<rect x="300" y="800" width="100" height="100" stroke="black" stroke-width="2"/>
<rect x="400" y="800" width="100" height="100" stroke="black" stroke-width="2"/>
<rect x="500" y="800" width="100" height="100" stroke="black" stroke-width="2"/>
<rect x="900" y="800" width="100" height="100" stroke="black" stroke-width="2"/>
<rect x="1000" y="800" width="100" height="100" stroke="black" stroke-width="2"/>
<rect x="1100" y="800" width="100" height="100" stroke="black" stroke-width="2"/>
<rect x="1200" y="800" width="100" height="100" stroke="black" stroke-width="2"/>
<rect x="1300" y="800" width="100" height="100" fill="#D43230" stroke="black" stroke-width="2"/>
<path d="M1326.99 881.154C1326.1 883.906 1329.24 886.196 1331.59 884.516L1345.96 874.239C1348.4 872.497 1351.68 872.499 1354.11 874.244L1368.4 884.481C1370.75 886.17 1373.9 883.867 1372.99 881.111L1367.65 864.739C1366.7 861.846 1367.73 858.674 1370.2 856.892L1384.24 846.743C1386.59 845.041 1385.4 841.321 1382.49 841.312L1364.93 841.26C1361.92 841.251 1359.25 839.314 1358.31 836.451L1352.88 819.998C1351.98 817.253 1348.1 817.25 1347.19 819.994L1341.72 836.494C1340.77 839.355 1338.1 841.288 1335.09 841.293L1317.59 841.319C1314.68 841.324 1313.48 845.052 1315.84 846.753L1329.75 856.776C1332.21 858.551 1333.25 861.712 1332.32 864.603L1326.99 881.154Z" stroke="#FFB3B3" stroke-width="4"/>
<rect x="1400" y="800" width="100" height="100" stroke="black" stroke-width="2"/>
<rect x="600" y="900" width="100" height="100" stroke="black" stroke-width="2"/>
<rect x="700" y="900" width="100" height="100" fill="#229746" stroke="black" stroke-width="2"/>
<rect x="800" y="900" width="100" height="100" stroke="black" stroke-width="2"/>
<rect x="600" y="1000" width="100" height="100" stroke="black" stroke-width="2"/>
<rect x="700" y="1000" width="100" height="100" fill="#229746" stroke="black" stroke-width="2"/>
<rect x="800" y="1000" width="100" height="100" stroke="black" stroke-width="2"/>
<rect x="600" y="1100" width="100" height="100" stroke="black" stroke-width="2"/>
<rect x="700" y="1100" width="100" height="100" fill="#229746" stroke="black" stroke-width="2"/>
<rect x="800" y="1100" width="100" height="100" stroke="black" stroke-width="2"/>
<rect x="600" y="1200" width="100" height="100" stroke="black" stroke-width="2"/>
<rect x="700" y="1200" width="100" height="100" fill="#229746" stroke="black" stroke-width="2"/>
<rect x="800" y="1300" width="100" height="100" stroke="black" stroke-width="2"/>
<rect x="600" y="1300" width="100" height="100" fill="#229746" stroke="black" stroke-width="2"/>
<path d="M626.989 1381.15C626.103 1383.91 629.237 1386.2 631.589 1384.52L645.965 1374.24C648.402 1372.5 651.678 1372.5 654.113 1374.24L668.396 1384.48C670.752 1386.17 673.895 1383.87 672.995 1381.11L667.645 1364.74C666.7 1361.85 667.731 1358.67 670.198 1356.89L684.239 1346.74C686.594 1345.04 685.396 1341.32 682.491 1341.31L664.933 1341.26C661.92 1341.25 659.25 1339.31 658.306 1336.45L652.884 1320C651.978 1317.25 648.095 1317.25 647.186 1319.99L641.721 1336.49C640.774 1339.36 638.101 1341.29 635.087 1341.29L617.586 1341.32C614.676 1341.32 613.476 1345.05 615.837 1346.75L629.75 1356.78C632.214 1358.55 633.252 1361.71 632.321 1364.6L626.989 1381.15Z" stroke="#B3FFCA" stroke-width="4"/>
<rect x="600" y="1400" width="100" height="100" stroke="black" stroke-width="2"/>
<path d="M785 1483.5C763.737 1483.5 746.5 1466.26 746.5 1445V1423.31L738.19 1431.62C736.824 1432.98 734.608 1432.98 733.241 1431.62C731.874 1430.25 731.874 1428.03 733.241 1426.67L747.383 1412.53C748.75 1411.16 750.966 1411.16 752.333 1412.53L766.475 1426.67C767.841 1428.03 767.841 1430.25 766.475 1431.62C765.108 1432.98 762.892 1432.98 761.525 1431.62L753.5 1423.59V1445C753.5 1462.4 767.603 1476.5 785 1476.5H800V1483.5H785Z" fill="#CCCCCC"/>
<rect x="800" y="1400" width="100" height="100" transform="rotate(90 800 1400)" stroke="black" stroke-width="2"/>
<rect x="800" y="1400" width="100" height="100" stroke="black" stroke-width="2"/>
<path d="M0 0H600V500C600 555.228 555.228 600 500 600H0V0Z" fill="#F5CC01"/>
<rect x="50" y="50" width="500" height="500" rx="100" stroke="white" stroke-width="5"/>
<rect x="100" y="100" width="400" height="400" rx="100" fill="white"/>
<circle cx="225" cy="225" r="50" fill="#F5CC01"/>
<circle cx="375" cy="225" r="50" fill="#F5CC01"/>
<circle cx="225" cy="375" r="50" fill="#F5CC01"/>
<circle cx="375" cy="375" r="50" fill="#F5CC01"/>
<path d="M900 0H1500V600H1000C944.772 600 900 555.228 900 500V0Z" fill="#1088D6"/>
<rect x="950" y="50" width="500" height="500" rx="100" stroke="white" stroke-width="5"/>
<rect x="1000" y="100" width="400" height="400" rx="100" fill="white"/>
<circle cx="1125" cy="225" r="50" fill="#1088D6"/>
<circle cx="1275" cy="225" r="50" fill="#1088D6"/>
<circle cx="1125" cy="375" r="50" fill="#1088D6"/>
<circle cx="1275" cy="375" r="50" fill="#1088D6"/>
<path d="M900 1000C900 944.772 944.772 900 1000 900H1500V1500H900V1000Z" fill="#D43230"/>
<rect x="950" y="950" width="500" height="500" rx="100" stroke="white" stroke-width="5"/>
<rect x="1000" y="1000" width="400" height="400" rx="100" fill="white"/>
<circle cx="1125" cy="1125" r="50" fill="#D43230"/>
<circle cx="1275" cy="1125" r="50" fill="#D43230"/>
<circle cx="1125" cy="1275" r="50" fill="#D43230"/>
<circle cx="1275" cy="1275" r="50" fill="#D43230"/>
<path d="M0 900H500C555.228 900 600 944.772 600 1000V1500H0V900Z" fill="#229746"/>
<rect x="50" y="950" width="500" height="500" rx="100" stroke="white" stroke-width="5"/>
<rect x="100" y="1000" width="400" height="400" rx="100" fill="white"/>
<circle cx="225" cy="1125" r="50" fill="#229746"/>
<circle cx="375" cy="1125" r="50" fill="#229746"/>
<circle cx="225" cy="1275" r="50" fill="#229746"/>
<circle cx="375" cy="1275" r="50" fill="#229746"/>
<g clip-path="url(#clip1_4_818)">
<path d="M600 900L750 750L600 600V900Z" fill="#F5CC01"/>
<path d="M600 600L750 750L900 600H600Z" fill="#1088D6"/>
<path d="M900 600L750 750L900 900V600Z" fill="#D43230"/>
<path d="M900 900L750 750L600 900H900Z" fill="#229746"/>
</g>
<path d="M826.989 1281.15C826.103 1283.91 829.237 1286.2 831.589 1284.52L845.965 1274.24C848.402 1272.5 851.678 1272.5 854.113 1274.24L868.396 1284.48C870.752 1286.17 873.895 1283.87 872.995 1281.11L867.645 1264.74C866.7 1261.85 867.731 1258.67 870.198 1256.89L884.239 1246.74C886.594 1245.04 885.396 1241.32 882.491 1241.31L864.933 1241.26C861.92 1241.25 859.25 1239.31 858.306 1236.45L852.884 1220C851.978 1217.25 848.095 1217.25 847.186 1219.99L841.721 1236.49C840.774 1239.36 838.101 1241.29 835.087 1241.29L817.586 1241.32C814.676 1241.32 813.476 1245.05 815.837 1246.75L829.75 1256.78C832.214 1258.55 833.252 1261.71 832.321 1264.6L826.989 1281.15Z" stroke="#CCCCCC" stroke-width="4"/>
<rect x="800" y="1200" width="100" height="100" stroke="black" stroke-width="2"/>
<path d="M700 1300H800V1370C800 1386.57 786.569 1400 770 1400H700V1300Z" fill="#229746" stroke="black" stroke-width="2"/>
</g>
<defs>
<clipPath id="clip0_4_818">
<rect width="1500" height="1500" fill="white"/>
</clipPath>
<clipPath id="clip1_4_818">
<rect x="600" y="600" width="300" height="300" rx="30" fill="white"/>
</clipPath>
</defs>
</svg>
