<svg width="100" height="100" viewBox="0 0 100 100" fill="none" xmlns="http://www.w3.org/2000/svg">
<circle cx="67.5" cy="72.5" r="16.5" fill="#FFFF33" stroke="white" stroke-width="2"/>
<path d="M66.872 60.584C71.0533 60.528 73.6853 61.984 74.768 64.952C74.9173 65.4933 74.992 65.9973 74.992 66.464V66.884C75.0293 69.6093 73.4987 71.8213 70.4 73.52C67.32 75.2187 65.7427 77.0667 65.668 79.064H71.856C73.6293 79.064 74.712 78.7093 75.104 78C75.3653 78.056 75.5053 78.2333 75.524 78.532L74.544 82.732H73.256H60.348C59.9747 82.732 59.788 82.368 59.788 81.64V81.444C59.7133 78.4387 61.748 75.6013 65.892 72.932C68.804 70.9347 70.316 69.404 70.428 68.34C70.764 65.1293 69.7653 63.3747 67.432 63.076C65.0613 63.2627 63.9693 65.036 64.156 68.396C64.1373 68.6947 63.9693 68.872 63.652 68.928H60.32C60.04 68.928 59.8813 68.76 59.844 68.424C59.8813 65.8107 60.6093 63.8507 62.028 62.544C63.2973 61.4053 64.912 60.752 66.872 60.584Z" fill="white"/>
</svg>
