<svg width="100" height="100" viewBox="0 0 100 100" fill="none" xmlns="http://www.w3.org/2000/svg">
<circle cx="67.5" cy="72.5" r="16.5" fill="#FFFF33" stroke="white" stroke-width="2"/>
<path d="M66.68 60.332C69.1627 60.3507 71.0667 60.9667 72.392 62.18C73.736 63.3747 74.3707 64.728 74.296 66.24C74.184 68.5547 73.176 70.1787 71.272 71.112C71.9627 71.2987 72.5787 71.6067 73.12 72.036C74.4827 73.0067 75.136 74.4533 75.08 76.376C74.9307 78.672 74.044 80.38 72.42 81.5C70.796 82.6013 68.808 83.1053 66.456 83.012C63.096 83.012 60.856 81.78 59.736 79.316C59.5307 78.5507 59.428 77.8973 59.428 77.356V75.62C59.4653 75.4333 59.568 75.3213 59.736 75.284H62.732C62.9 75.3027 63.012 75.4147 63.068 75.62V76.264C62.956 78.5227 64.0573 79.7547 66.372 79.96H66.484C68.9853 79.7733 70.2453 78.5787 70.264 76.376C70.3013 73.968 69.0413 72.6333 66.484 72.372H64.3C64.132 72.372 64.0293 72.2693 63.992 72.064V70.216C63.9733 69.992 64.076 69.88 64.3 69.88H66.372C68.724 69.8427 69.9653 68.6387 70.096 66.268C69.816 64.252 68.612 63.2347 66.484 63.216C64.3 63.4213 63.1987 64.532 63.18 66.548V67.08C63.18 67.3787 63.0493 67.528 62.788 67.528H59.904C59.6427 67.5467 59.5027 67.4067 59.484 67.108C59.5213 62.684 61.92 60.4253 66.68 60.332Z" fill="white"/>
</svg>
