<svg width="100" height="100" viewBox="0 0 100 100" fill="none" xmlns="http://www.w3.org/2000/svg">
<circle cx="67.5" cy="72.5" r="16.5" fill="#FFFF33" stroke="white" stroke-width="2"/>
<path d="M71.532 60.556C71.9053 60.5373 72.12 60.6493 72.176 60.892L72.204 74.164H76.32C76.5253 74.1827 76.628 74.2947 76.628 74.5V77.216C76.5533 77.44 76.3387 77.552 75.984 77.552H72.204V79.204C72.204 81.5 70.72 82.872 67.752 83.32C67.6213 83.3013 67.556 83.1987 67.556 83.012V77.552H60.388H58.736C58.2133 77.496 57.9707 77.3 58.008 76.964C57.9147 76.124 58.0267 75.508 58.344 75.116L67.528 61.004C67.7147 60.724 67.9667 60.5747 68.284 60.556H71.532ZM67.416 65.008C67.2293 65.344 65.988 67.3787 63.692 71.112C63.132 72.0267 62.5067 73.044 61.816 74.164H67.556L67.528 65.008H67.416Z" fill="white"/>
</svg>
