<svg width="100" height="100" viewBox="0 0 100 100" fill="none" xmlns="http://www.w3.org/2000/svg">
<circle cx="50" cy="72.5" r="16.5" fill="#FFFF33" stroke="white" stroke-width="2"/>
<path d="M49.372 60.584C53.5533 60.528 56.1853 61.984 57.268 64.952C57.4173 65.4933 57.492 65.9973 57.492 66.464V66.884C57.5293 69.6093 55.9987 71.8213 52.9 73.52C49.82 75.2187 48.2427 77.0667 48.168 79.064H54.356C56.1293 79.064 57.212 78.7093 57.604 78C57.8653 78.056 58.0053 78.2333 58.024 78.532L57.044 82.732H55.756H42.848C42.4747 82.732 42.288 82.368 42.288 81.64V81.444C42.2133 78.4387 44.248 75.6013 48.392 72.932C51.304 70.9347 52.816 69.404 52.928 68.34C53.264 65.1293 52.2653 63.3747 49.932 63.076C47.5613 63.2627 46.4693 65.036 46.656 68.396C46.6373 68.6947 46.4693 68.872 46.152 68.928H42.82C42.54 68.928 42.3813 68.76 42.344 68.424C42.3813 65.8107 43.1093 63.8507 44.528 62.544C45.7973 61.4053 47.412 60.752 49.372 60.584Z" fill="white"/>
</svg>
