<svg width="100" height="100" viewBox="0 0 100 100" fill="none" xmlns="http://www.w3.org/2000/svg">
<circle cx="50" cy="72.5" r="16.5" fill="#FFFF33" stroke="white" stroke-width="2"/>
<path d="M49.18 60.332C51.6627 60.3507 53.5667 60.9667 54.892 62.18C56.236 63.3747 56.8707 64.728 56.796 66.24C56.684 68.5547 55.676 70.1787 53.772 71.112C54.4627 71.2987 55.0787 71.6067 55.62 72.036C56.9827 73.0067 57.636 74.4533 57.58 76.376C57.4307 78.672 56.544 80.38 54.92 81.5C53.296 82.6013 51.308 83.1053 48.956 83.012C45.596 83.012 43.356 81.78 42.236 79.316C42.0307 78.5507 41.928 77.8973 41.928 77.356V75.62C41.9653 75.4333 42.068 75.3213 42.236 75.284H45.232C45.4 75.3027 45.512 75.4147 45.568 75.62V76.264C45.456 78.5227 46.5573 79.7547 48.872 79.96H48.984C51.4853 79.7733 52.7453 78.5787 52.764 76.376C52.8013 73.968 51.5413 72.6333 48.984 72.372H46.8C46.632 72.372 46.5293 72.2693 46.492 72.064V70.216C46.4733 69.992 46.576 69.88 46.8 69.88H48.872C51.224 69.8427 52.4653 68.6387 52.596 66.268C52.316 64.252 51.112 63.2347 48.984 63.216C46.8 63.4213 45.6987 64.532 45.68 66.548V67.08C45.68 67.3787 45.5493 67.528 45.288 67.528H42.404C42.1427 67.5467 42.0027 67.4067 41.984 67.108C42.0213 62.684 44.42 60.4253 49.18 60.332Z" fill="white"/>
</svg>
