<svg width="100" height="100" viewBox="0 0 100 100" fill="none" xmlns="http://www.w3.org/2000/svg">
<circle cx="50" cy="72.5" r="16.5" fill="#FFFF33" stroke="white" stroke-width="2"/>
<path d="M54.032 60.556C54.4053 60.5373 54.62 60.6493 54.676 60.892L54.704 74.164H58.82C59.0253 74.1827 59.128 74.2947 59.128 74.5V77.216C59.0533 77.44 58.8387 77.552 58.484 77.552H54.704V79.204C54.704 81.5 53.22 82.872 50.252 83.32C50.1213 83.3013 50.056 83.1987 50.056 83.012V77.552H42.888H41.236C40.7133 77.496 40.4707 77.3 40.508 76.964C40.4147 76.124 40.5267 75.508 40.844 75.116L50.028 61.004C50.2147 60.724 50.4667 60.5747 50.784 60.556H54.032ZM49.916 65.008C49.7293 65.344 48.488 67.3787 46.192 71.112C45.632 72.0267 45.0067 73.044 44.316 74.164H50.056L50.028 65.008H49.916Z" fill="white"/>
</svg>
