<svg width="100" height="100" viewBox="0 0 100 100" fill="none" xmlns="http://www.w3.org/2000/svg">
<g filter="url(#filter0_d_32_2645)">
<mask id="mask0_32_2645" style="mask-type:alpha" maskUnits="userSpaceOnUse" x="26" y="39" width="48" height="51">
<path d="M61.7302 39.5601C61.7302 39.5601 61.7302 57.5688 72.7554 75.9457C73.2079 76.6997 73.4841 77.5659 73.3831 78.4395C73.2661 79.4515 73.018 80.4375 72.6508 81.3893C69.7964 88.7872 60.3544 90 52.425 90H47.575C39.6455 90 30.2035 88.7872 27.3492 81.3893C26.9819 80.4375 26.7339 79.4515 26.6169 78.4395C26.5159 77.5659 26.7921 76.6997 27.2445 75.9457C38.2697 57.5688 38.2698 39.5601 38.2698 39.5601H61.7302Z" fill="#ff0000"/>
</mask>
<g mask="url(#mask0_32_2645)">
<g filter="url(#filter1_iii_32_2645)">
<path d="M61.7302 39.5601C61.7302 39.5601 61.7302 57.5688 72.7554 75.9457C73.2079 76.6997 73.4841 77.5659 73.3831 78.4395C73.2661 79.4515 73.018 80.4375 72.6508 81.3893C69.7964 88.7872 60.3544 90 52.425 90H47.575C39.6455 90 30.2035 88.7872 27.3492 81.3893C26.9819 80.4375 26.7339 79.4515 26.6169 78.4395C26.5159 77.5659 26.7921 76.6997 27.2445 75.9457C38.2697 57.5688 38.2698 39.5601 38.2698 39.5601H61.7302Z" fill="#FFFF00"/>
</g>
<g filter="url(#filter2_f_32_2645)">
<path d="M55.3959 39.5602C55.3959 49.1377 56.7467 63.5153 62.4776 77.0968H60.9517C55.3078 63.4273 53.9883 49.0909 53.9883 39.5602H55.3959Z" fill="url(#paint0_linear_32_2645)"/>
<path d="M55.3959 39.5602C55.3959 49.1377 56.7467 63.5153 62.4776 77.0968H60.9517C55.3078 63.4273 53.9883 49.0909 53.9883 39.5602H55.3959Z" stroke="white" stroke-width="1.25"/>
</g>
<g filter="url(#filter3_f_32_2645)">
<path d="M55.6305 39.3255V39.5601C55.6305 49.1199 56.9795 63.4632 62.6938 77.0056L62.8313 77.3314H60.7945L60.735 77.1861C55.0752 63.4783 53.7537 49.1085 53.7537 39.5601V39.3255H55.6305ZM54.2238 39.7947C54.2453 49.2734 55.5774 63.3863 61.1093 76.8622H62.1256C56.5394 63.4485 55.184 49.3124 55.1622 39.7947H54.2238Z" fill="white"/>
</g>
</g>
<mask id="mask1_32_2645" style="mask-type:alpha" maskUnits="userSpaceOnUse" x="32" y="10" width="36" height="33">
<path d="M49.7654 10C59.483 10 67.3607 17.8777 67.3607 27.5953C67.3607 30.9611 66.4155 34.1061 64.7762 36.7795C61.7684 41.6846 55.5192 42.8446 49.7654 42.8446C44.0115 42.8446 37.7623 41.6846 34.7545 36.7795C33.1152 34.1061 32.17 30.9611 32.17 27.5953C32.17 17.8777 40.0477 10 49.7654 10Z" fill="#D9D9D9"/>
</mask>
<g mask="url(#mask1_32_2645)">
<g filter="url(#filter4_i_32_2645)">
<path d="M67.3607 27.5953C67.3607 37.3129 59.483 45.1906 49.7654 45.1906C40.0477 45.1906 32.17 37.3129 32.17 27.5953C32.17 17.8777 40.0477 10 49.7654 10C59.483 10 67.3607 17.8777 67.3607 27.5953Z" fill="#FFFF00"/>
</g>
<g filter="url(#filter5_f_32_2645)">
<path d="M62.5514 28.827C62.5514 31.2564 60.582 33.2258 58.1526 33.2258C55.7232 33.2258 53.7538 31.2564 53.7538 28.827C53.7538 26.3976 55.7232 24.4281 58.1526 24.4281C60.582 24.4281 62.5514 26.3976 62.5514 28.827Z" fill="white"/>
</g>
<g filter="url(#filter6_f_32_2645)">
<path d="M58.2111 17.566C58.2111 18.3758 57.5546 19.0323 56.7448 19.0323C55.935 19.0323 55.2786 18.3758 55.2786 17.566C55.2786 16.7562 55.935 16.0997 56.7448 16.0997C57.5546 16.0997 58.2111 16.7562 58.2111 17.566Z" fill="white"/>
</g>
</g>
</g>
<defs>
<filter id="filter0_d_32_2645" x="21.5961" y="10" width="56.8078" height="89.9999" filterUnits="userSpaceOnUse" color-interpolation-filters="sRGB">
<feFlood flood-opacity="0" result="BackgroundImageFix"/>
<feColorMatrix in="SourceAlpha" type="matrix" values="0 0 0 0 0 0 0 0 0 0 0 0 0 0 0 0 0 0 127 0" result="hardAlpha"/>
<feOffset dy="5"/>
<feGaussianBlur stdDeviation="2.5"/>
<feComposite in2="hardAlpha" operator="out"/>
<feColorMatrix type="matrix" values="0 0 0 0 0 0 0 0 0 0 0 0 0 0 0 0 0 0 0.25 0"/>
<feBlend mode="normal" in2="BackgroundImageFix" result="effect1_dropShadow_32_2645"/>
<feBlend mode="normal" in="SourceGraphic" in2="effect1_dropShadow_32_2645" result="shape"/>
</filter>
<filter id="filter1_iii_32_2645" x="26.5961" y="34.868" width="47.3943" height="56.305" filterUnits="userSpaceOnUse" color-interpolation-filters="sRGB">
<feFlood flood-opacity="0" result="BackgroundImageFix"/>
<feBlend mode="normal" in="SourceGraphic" in2="BackgroundImageFix" result="shape"/>
<feColorMatrix in="SourceAlpha" type="matrix" values="0 0 0 0 0 0 0 0 0 0 0 0 0 0 0 0 0 0 127 0" result="hardAlpha"/>
<feOffset dx="0.58651" dy="1.17302"/>
<feGaussianBlur stdDeviation="2.34604"/>
<feComposite in2="hardAlpha" operator="arithmetic" k2="-1" k3="1"/>
<feColorMatrix type="matrix" values="0 0 0 0 0 0 0 0 0 0 0 0 0 0 0 0 0 0 0.2 0"/>
<feBlend mode="multiply" in2="shape" result="effect1_innerShadow_32_2645"/>
<feColorMatrix in="SourceAlpha" type="matrix" values="0 0 0 0 0 0 0 0 0 0 0 0 0 0 0 0 0 0 127 0" result="hardAlpha"/>
<feOffset dy="-1.75952"/>
<feGaussianBlur stdDeviation="1.17302"/>
<feComposite in2="hardAlpha" operator="arithmetic" k2="-1" k3="1"/>
<feColorMatrix type="matrix" values="0 0 0 0 0 0 0 0 0 0 0 0 0 0 0 0 0 0 0.2 0"/>
<feBlend mode="normal" in2="effect1_innerShadow_32_2645" result="effect2_innerShadow_32_2645"/>
<feColorMatrix in="SourceAlpha" type="matrix" values="0 0 0 0 0 0 0 0 0 0 0 0 0 0 0 0 0 0 127 0" result="hardAlpha"/>
<feOffset dy="-4.69209"/>
<feGaussianBlur stdDeviation="2.93255"/>
<feComposite in2="hardAlpha" operator="arithmetic" k2="-1" k3="1"/>
<feColorMatrix type="matrix" values="0 0 0 0 0 0 0 0 0 0 0 0 0 0 0 0 0 0 0.15 0"/>
<feBlend mode="multiply" in2="effect2_innerShadow_32_2645" result="effect3_innerShadow_32_2645"/>
</filter>
<filter id="filter2_f_32_2645" x="40.8633" y="26.4352" width="35.0564" height="63.7866" filterUnits="userSpaceOnUse" color-interpolation-filters="sRGB">
<feFlood flood-opacity="0" result="BackgroundImageFix"/>
<feBlend mode="normal" in="SourceGraphic" in2="BackgroundImageFix" result="shape"/>
<feGaussianBlur stdDeviation="6.25" result="effect1_foregroundBlur_32_2645"/>
</filter>
<filter id="filter3_f_32_2645" x="41.2537" y="26.8255" width="34.0776" height="63.0059" filterUnits="userSpaceOnUse" color-interpolation-filters="sRGB">
<feFlood flood-opacity="0" result="BackgroundImageFix"/>
<feBlend mode="normal" in="SourceGraphic" in2="BackgroundImageFix" result="shape"/>
<feGaussianBlur stdDeviation="6.25" result="effect1_foregroundBlur_32_2645"/>
</filter>
<filter id="filter4_i_32_2645" x="32.17" y="10" width="36.6569" height="35.9238" filterUnits="userSpaceOnUse" color-interpolation-filters="sRGB">
<feFlood flood-opacity="0" result="BackgroundImageFix"/>
<feBlend mode="normal" in="SourceGraphic" in2="BackgroundImageFix" result="shape"/>
<feColorMatrix in="SourceAlpha" type="matrix" values="0 0 0 0 0 0 0 0 0 0 0 0 0 0 0 0 0 0 127 0" result="hardAlpha"/>
<feOffset dx="1.46627" dy="0.733137"/>
<feGaussianBlur stdDeviation="7.33138"/>
<feComposite in2="hardAlpha" operator="arithmetic" k2="-1" k3="1"/>
<feColorMatrix type="matrix" values="0 0 0 0 0.6625 0 0 0 0 0 0 0 0 0 0 0 0 0 0.5 0"/>
<feBlend mode="normal" in2="shape" result="effect1_innerShadow_32_2645"/>
</filter>
<filter id="filter5_f_32_2645" x="43.4899" y="14.1642" width="29.3255" height="29.3256" filterUnits="userSpaceOnUse" color-interpolation-filters="sRGB">
<feFlood flood-opacity="0" result="BackgroundImageFix"/>
<feBlend mode="normal" in="SourceGraphic" in2="BackgroundImageFix" result="shape"/>
<feGaussianBlur stdDeviation="5.13196" result="effect1_foregroundBlur_32_2645"/>
</filter>
<filter id="filter6_f_32_2645" x="49.4135" y="10.2346" width="14.6627" height="14.6628" filterUnits="userSpaceOnUse" color-interpolation-filters="sRGB">
<feFlood flood-opacity="0" result="BackgroundImageFix"/>
<feBlend mode="normal" in="SourceGraphic" in2="BackgroundImageFix" result="shape"/>
<feGaussianBlur stdDeviation="2.93255" result="effect1_foregroundBlur_32_2645"/>
</filter>
<linearGradient id="paint0_linear_32_2645" x1="58.4458" y1="77.0968" x2="54.2229" y2="39.5602" gradientUnits="userSpaceOnUse">
<stop stop-color="white"/>
<stop offset="1" stop-color="white" stop-opacity="0"/>
</linearGradient>
</defs>
</svg>
