<svg width="100" height="100" viewBox="0 0 100 100" fill="none" xmlns="http://www.w3.org/2000/svg">
<g filter="url(#filter0_d_32_2714)">
<mask id="mask0_32_2714" style="mask-type:alpha" maskUnits="userSpaceOnUse" x="9" y="40" width="45" height="48">
<path d="M42.2382 40.2126C42.2382 40.2126 42.2382 57.0958 52.5743 74.3241C52.9985 75.031 53.2575 75.8431 53.1628 76.6621C53.0531 77.6108 52.8205 78.5352 52.4763 79.4275C49.8003 86.363 40.9484 87.5001 33.5146 87.5001H28.9677C21.5338 87.5001 12.6819 86.363 10.006 79.4275C9.66167 78.5352 9.42917 77.6108 9.31948 76.6621C9.22479 75.8431 9.48373 75.031 9.90786 74.3241C20.244 57.0958 20.2441 40.2126 20.2441 40.2126H42.2382Z" fill="#ff0000"/>
</mask>
<g mask="url(#mask0_32_2714)">
<g filter="url(#filter1_iii_32_2714)">
<path d="M42.2382 40.2126C42.2382 40.2126 42.2382 57.0958 52.5743 74.3241C52.9985 75.031 53.2575 75.8431 53.1628 76.6621C53.0531 77.6108 52.8205 78.5352 52.4763 79.4275C49.8003 86.363 40.9484 87.5001 33.5146 87.5001H28.9677C21.5338 87.5001 12.6819 86.363 10.006 79.4275C9.66167 78.5352 9.42917 77.6108 9.31948 76.6621C9.22479 75.8431 9.48373 75.031 9.90786 74.3241C20.244 57.0958 20.2441 40.2126 20.2441 40.2126H42.2382Z" fill="#FFFF00"/>
</g>
<g filter="url(#filter2_f_32_2714)">
<path d="M36.2998 40.2127C36.2998 49.1916 37.5662 62.6706 42.9389 75.4033H41.5083C36.2172 62.5881 34.9802 49.1477 34.9802 40.2127H36.2998Z" fill="url(#paint0_linear_32_2714)"/>
<path d="M36.2998 40.2127C36.2998 49.1916 37.5662 62.6706 42.9389 75.4033H41.5083C36.2172 62.5881 34.9802 49.1477 34.9802 40.2127H36.2998Z" stroke="white" stroke-width="1.25"/>
</g>
<g filter="url(#filter3_f_32_2714)">
<path d="M36.5198 39.9927V40.2126C36.5198 49.1749 37.7844 62.6218 43.1416 75.3178L43.2705 75.6232H41.361L41.3052 75.487C35.9992 62.6359 34.7603 49.1642 34.7603 40.2126V39.9927H36.5198ZM35.201 40.4326C35.2211 49.3188 36.47 62.5497 41.6561 75.1833H42.6089C37.3718 62.608 36.1012 49.3554 36.0807 40.4326H35.201Z" fill="white"/>
</g>
</g>
<mask id="mask1_32_2714" style="mask-type:alpha" maskUnits="userSpaceOnUse" x="14" y="12" width="34" height="32">
<path d="M31.0212 12.5C40.1315 12.5 47.5168 19.8853 47.5168 28.9956C47.5168 32.151 46.6307 35.0995 45.0938 37.6058C42.274 42.2043 36.4154 43.2918 31.0212 43.2918C25.6269 43.2918 19.7683 42.2043 16.9485 37.6058C15.4116 35.0995 14.5255 32.151 14.5255 28.9956C14.5255 19.8853 21.9109 12.5 31.0212 12.5Z" fill="#D9D9D9"/>
</mask>
<g mask="url(#mask1_32_2714)">
<g filter="url(#filter4_i_32_2714)">
<path d="M47.5168 28.9956C47.5168 38.1058 40.1315 45.4912 31.0212 45.4912C21.9109 45.4912 14.5255 38.1058 14.5255 28.9956C14.5255 19.8853 21.9109 12.5 31.0212 12.5C40.1315 12.5 47.5168 19.8853 47.5168 28.9956Z" fill="#FFFF00"/>
</g>
<g filter="url(#filter5_f_32_2714)">
<path d="M43.008 30.1503C43.008 32.4278 41.1617 34.2741 38.8841 34.2741C36.6066 34.2741 34.7603 32.4278 34.7603 30.1503C34.7603 27.8727 36.6066 26.0263 38.8841 26.0263C41.1617 26.0263 43.008 27.8727 43.008 30.1503Z" fill="white"/>
</g>
<g filter="url(#filter6_f_32_2714)">
<path d="M38.9391 19.5932C38.9391 20.3523 38.3236 20.9678 37.5644 20.9678C36.8052 20.9678 36.1898 20.3523 36.1898 19.5932C36.1898 18.834 36.8052 18.2185 37.5644 18.2185C38.3236 18.2185 38.9391 18.834 38.9391 19.5932Z" fill="white"/>
</g>
</g>
</g>
<g filter="url(#filter7_d_32_2714)">
<mask id="mask2_32_2714" style="mask-type:alpha" maskUnits="userSpaceOnUse" x="28" y="40" width="44" height="48">
<path d="M60.9882 40.2126C60.9882 40.2126 60.9882 57.0958 71.3243 74.3241C71.7485 75.031 72.0075 75.8431 71.9128 76.6621C71.8031 77.6108 71.5705 78.5352 71.2263 79.4275C68.5503 86.363 59.6984 87.5001 52.2646 87.5001H47.7177C40.2838 87.5001 31.4319 86.363 28.756 79.4275C28.4117 78.5352 28.1792 77.6108 28.0695 76.6621C27.9748 75.8431 28.2337 75.031 28.6579 74.3241C38.994 57.0958 38.9941 40.2126 38.9941 40.2126H60.9882Z" fill="#ff0000"/>
</mask>
<g mask="url(#mask2_32_2714)">
<g filter="url(#filter8_iii_32_2714)">
<path d="M60.9882 40.2126C60.9882 40.2126 60.9882 57.0958 71.3243 74.3241C71.7485 75.031 72.0075 75.8431 71.9128 76.6621C71.8031 77.6108 71.5705 78.5352 71.2263 79.4275C68.5503 86.363 59.6984 87.5001 52.2646 87.5001H47.7177C40.2838 87.5001 31.4319 86.363 28.756 79.4275C28.4117 78.5352 28.1792 77.6108 28.0695 76.6621C27.9748 75.8431 28.2337 75.031 28.6579 74.3241C38.994 57.0958 38.9941 40.2126 38.9941 40.2126H60.9882Z" fill="#00FF00"/>
</g>
<g filter="url(#filter9_f_32_2714)">
<path d="M55.0498 40.2127C55.0498 49.1916 56.3162 62.6706 61.6889 75.4033H60.2583C54.9672 62.5881 53.7302 49.1477 53.7302 40.2127H55.0498Z" fill="url(#paint1_linear_32_2714)"/>
<path d="M55.0498 40.2127C55.0498 49.1916 56.3162 62.6706 61.6889 75.4033H60.2583C54.9672 62.5881 53.7302 49.1477 53.7302 40.2127H55.0498Z" stroke="white" stroke-width="1.25"/>
</g>
<g filter="url(#filter10_f_32_2714)">
<path d="M55.2698 39.9927V40.2126C55.2698 49.1749 56.5344 62.6218 61.8916 75.3178L62.0205 75.6232H60.111L60.0552 75.487C54.7492 62.6359 53.5103 49.1642 53.5103 40.2126V39.9927H55.2698ZM53.951 40.4326C53.9711 49.3188 55.22 62.5497 60.4061 75.1833H61.3589C56.1218 62.608 54.8512 49.3554 54.8307 40.4326H53.951Z" fill="white"/>
</g>
</g>
<mask id="mask3_32_2714" style="mask-type:alpha" maskUnits="userSpaceOnUse" x="33" y="12" width="34" height="32">
<path d="M49.7712 12.5C58.8815 12.5 66.2668 19.8853 66.2668 28.9956C66.2668 32.151 65.3807 35.0995 63.8438 37.6058C61.024 42.2043 55.1654 43.2918 49.7712 43.2918C44.3769 43.2918 38.5183 42.2043 35.6985 37.6058C34.1616 35.0995 33.2755 32.151 33.2755 28.9956C33.2755 19.8853 40.6609 12.5 49.7712 12.5Z" fill="#D9D9D9"/>
</mask>
<g mask="url(#mask3_32_2714)">
<g filter="url(#filter11_i_32_2714)">
<path d="M66.2668 28.9956C66.2668 38.1058 58.8815 45.4912 49.7712 45.4912C40.6609 45.4912 33.2755 38.1058 33.2755 28.9956C33.2755 19.8853 40.6609 12.5 49.7712 12.5C58.8815 12.5 66.2668 19.8853 66.2668 28.9956Z" fill="#00FF00"/>
</g>
<g filter="url(#filter12_f_32_2714)">
<path d="M61.758 30.1503C61.758 32.4278 59.9117 34.2741 57.6341 34.2741C55.3566 34.2741 53.5103 32.4278 53.5103 30.1503C53.5103 27.8727 55.3566 26.0263 57.6341 26.0263C59.9117 26.0263 61.758 27.8727 61.758 30.1503Z" fill="white"/>
</g>
<g filter="url(#filter13_f_32_2714)">
<path d="M57.6891 19.5932C57.6891 20.3523 57.0736 20.9678 56.3144 20.9678C55.5552 20.9678 54.9398 20.3523 54.9398 19.5932C54.9398 18.834 55.5552 18.2185 56.3144 18.2185C57.0736 18.2185 57.6891 18.834 57.6891 19.5932Z" fill="white"/>
</g>
</g>
</g>
<g filter="url(#filter14_d_32_2714)">
<mask id="mask4_32_2714" style="mask-type:alpha" maskUnits="userSpaceOnUse" x="46" y="40" width="45" height="48">
<path d="M79.7382 40.2126C79.7382 40.2126 79.7382 57.0958 90.0743 74.3241C90.4985 75.031 90.7575 75.8431 90.6628 76.6621C90.5531 77.6108 90.3205 78.5352 89.9763 79.4275C87.3003 86.363 78.4484 87.5001 71.0146 87.5001H66.4677C59.0338 87.5001 50.1819 86.363 47.506 79.4275C47.1617 78.5352 46.9292 77.6108 46.8195 76.6621C46.7248 75.8431 46.9837 75.031 47.4079 74.3241C57.744 57.0958 57.7441 40.2126 57.7441 40.2126H79.7382Z" fill="#ff0000"/>
</mask>
<g mask="url(#mask4_32_2714)">
<g filter="url(#filter15_iii_32_2714)">
<path d="M79.7382 40.2126C79.7382 40.2126 79.7382 57.0958 90.0743 74.3241C90.4985 75.031 90.7575 75.8431 90.6628 76.6621C90.5531 77.6108 90.3205 78.5352 89.9763 79.4275C87.3003 86.363 78.4484 87.5001 71.0146 87.5001H66.4677C59.0338 87.5001 50.1819 86.363 47.506 79.4275C47.1617 78.5352 46.9292 77.6108 46.8195 76.6621C46.7248 75.8431 46.9837 75.031 47.4079 74.3241C57.744 57.0958 57.7441 40.2126 57.7441 40.2126H79.7382Z" fill="#ff0000"/>
</g>
<g filter="url(#filter16_f_32_2714)">
<path d="M73.7998 40.2127C73.7998 49.1916 75.0662 62.6706 80.4389 75.4033H79.0083C73.7172 62.5881 72.4802 49.1477 72.4802 40.2127H73.7998Z" fill="url(#paint2_linear_32_2714)"/>
<path d="M73.7998 40.2127C73.7998 49.1916 75.0662 62.6706 80.4389 75.4033H79.0083C73.7172 62.5881 72.4802 49.1477 72.4802 40.2127H73.7998Z" stroke="white" stroke-width="1.25"/>
</g>
<g filter="url(#filter17_f_32_2714)">
<path d="M74.0198 39.9927V40.2126C74.0198 49.1749 75.2844 62.6218 80.6416 75.3178L80.7705 75.6232H78.861L78.8052 75.487C73.4992 62.6359 72.2603 49.1642 72.2603 40.2126V39.9927H74.0198ZM72.701 40.4326C72.7211 49.3188 73.97 62.5497 79.1561 75.1833H80.1089C74.8718 62.608 73.6012 49.3554 73.5807 40.4326H72.701Z" fill="white"/>
</g>
</g>
<mask id="mask5_32_2714" style="mask-type:alpha" maskUnits="userSpaceOnUse" x="52" y="12" width="34" height="32">
<path d="M68.5212 12.5C77.6315 12.5 85.0168 19.8853 85.0168 28.9956C85.0168 32.151 84.1307 35.0995 82.5938 37.6058C79.774 42.2043 73.9154 43.2918 68.5212 43.2918C63.1269 43.2918 57.2683 42.2043 54.4485 37.6058C52.9116 35.0995 52.0255 32.151 52.0255 28.9956C52.0255 19.8853 59.4109 12.5 68.5212 12.5Z" fill="#D9D9D9"/>
</mask>
<g mask="url(#mask5_32_2714)">
<g filter="url(#filter18_i_32_2714)">
<path d="M85.0168 28.9956C85.0168 38.1058 77.6315 45.4912 68.5212 45.4912C59.4109 45.4912 52.0255 38.1058 52.0255 28.9956C52.0255 19.8853 59.4109 12.5 68.5212 12.5C77.6315 12.5 85.0168 19.8853 85.0168 28.9956Z" fill="#ff0000"/>
</g>
<g filter="url(#filter19_f_32_2714)">
<path d="M80.508 30.1503C80.508 32.4278 78.6617 34.2741 76.3841 34.2741C74.1066 34.2741 72.2603 32.4278 72.2603 30.1503C72.2603 27.8727 74.1066 26.0263 76.3841 26.0263C78.6617 26.0263 80.508 27.8727 80.508 30.1503Z" fill="white"/>
</g>
<g filter="url(#filter20_f_32_2714)">
<path d="M76.4391 19.5932C76.4391 20.3523 75.8236 20.9678 75.0644 20.9678C74.3052 20.9678 73.6898 20.3523 73.6898 19.5932C73.6898 18.834 74.3052 18.2185 75.0644 18.2185C75.8236 18.2185 76.4391 18.834 76.4391 19.5932Z" fill="white"/>
</g>
</g>
</g>
<defs>
<filter id="filter0_d_32_2714" x="4.29999" y="12.5" width="53.8823" height="85.0001" filterUnits="userSpaceOnUse" color-interpolation-filters="sRGB">
<feFlood flood-opacity="0" result="BackgroundImageFix"/>
<feColorMatrix in="SourceAlpha" type="matrix" values="0 0 0 0 0 0 0 0 0 0 0 0 0 0 0 0 0 0 127 0" result="hardAlpha"/>
<feOffset dy="5"/>
<feGaussianBlur stdDeviation="2.5"/>
<feComposite in2="hardAlpha" operator="out"/>
<feColorMatrix type="matrix" values="0 0 0 0 0 0 0 0 0 0 0 0 0 0 0 0 0 0 0.25 0"/>
<feBlend mode="normal" in2="BackgroundImageFix" result="effect1_dropShadow_32_2714"/>
<feBlend mode="normal" in="SourceGraphic" in2="effect1_dropShadow_32_2714" result="shape"/>
</filter>
<filter id="filter1_iii_32_2714" x="9.29999" y="35.5206" width="44.4688" height="53.1525" filterUnits="userSpaceOnUse" color-interpolation-filters="sRGB">
<feFlood flood-opacity="0" result="BackgroundImageFix"/>
<feBlend mode="normal" in="SourceGraphic" in2="BackgroundImageFix" result="shape"/>
<feColorMatrix in="SourceAlpha" type="matrix" values="0 0 0 0 0 0 0 0 0 0 0 0 0 0 0 0 0 0 127 0" result="hardAlpha"/>
<feOffset dx="0.58651" dy="1.17302"/>
<feGaussianBlur stdDeviation="2.34604"/>
<feComposite in2="hardAlpha" operator="arithmetic" k2="-1" k3="1"/>
<feColorMatrix type="matrix" values="0 0 0 0 0 0 0 0 0 0 0 0 0 0 0 0 0 0 0.2 0"/>
<feBlend mode="multiply" in2="shape" result="effect1_innerShadow_32_2714"/>
<feColorMatrix in="SourceAlpha" type="matrix" values="0 0 0 0 0 0 0 0 0 0 0 0 0 0 0 0 0 0 127 0" result="hardAlpha"/>
<feOffset dy="-1.75952"/>
<feGaussianBlur stdDeviation="1.17302"/>
<feComposite in2="hardAlpha" operator="arithmetic" k2="-1" k3="1"/>
<feColorMatrix type="matrix" values="0 0 0 0 0 0 0 0 0 0 0 0 0 0 0 0 0 0 0.2 0"/>
<feBlend mode="normal" in2="effect1_innerShadow_32_2714" result="effect2_innerShadow_32_2714"/>
<feColorMatrix in="SourceAlpha" type="matrix" values="0 0 0 0 0 0 0 0 0 0 0 0 0 0 0 0 0 0 127 0" result="hardAlpha"/>
<feOffset dy="-4.69209"/>
<feGaussianBlur stdDeviation="2.93255"/>
<feComposite in2="hardAlpha" operator="arithmetic" k2="-1" k3="1"/>
<feColorMatrix type="matrix" values="0 0 0 0 0 0 0 0 0 0 0 0 0 0 0 0 0 0 0.15 0"/>
<feBlend mode="multiply" in2="effect2_innerShadow_32_2714" result="effect3_innerShadow_32_2714"/>
</filter>
<filter id="filter2_f_32_2714" x="21.8552" y="27.0877" width="34.5258" height="61.4406" filterUnits="userSpaceOnUse" color-interpolation-filters="sRGB">
<feFlood flood-opacity="0" result="BackgroundImageFix"/>
<feBlend mode="normal" in="SourceGraphic" in2="BackgroundImageFix" result="shape"/>
<feGaussianBlur stdDeviation="6.25" result="effect1_foregroundBlur_32_2714"/>
</filter>
<filter id="filter3_f_32_2714" x="22.2603" y="27.4927" width="33.5103" height="60.6306" filterUnits="userSpaceOnUse" color-interpolation-filters="sRGB">
<feFlood flood-opacity="0" result="BackgroundImageFix"/>
<feBlend mode="normal" in="SourceGraphic" in2="BackgroundImageFix" result="shape"/>
<feGaussianBlur stdDeviation="6.25" result="effect1_foregroundBlur_32_2714"/>
</filter>
<filter id="filter4_i_32_2714" x="14.5255" y="12.5" width="34.4576" height="33.7243" filterUnits="userSpaceOnUse" color-interpolation-filters="sRGB">
<feFlood flood-opacity="0" result="BackgroundImageFix"/>
<feBlend mode="normal" in="SourceGraphic" in2="BackgroundImageFix" result="shape"/>
<feColorMatrix in="SourceAlpha" type="matrix" values="0 0 0 0 0 0 0 0 0 0 0 0 0 0 0 0 0 0 127 0" result="hardAlpha"/>
<feOffset dx="1.46627" dy="0.733137"/>
<feGaussianBlur stdDeviation="7.33138"/>
<feComposite in2="hardAlpha" operator="arithmetic" k2="-1" k3="1"/>
<feColorMatrix type="matrix" values="0 0 0 0 0.6625 0 0 0 0 0 0 0 0 0 0 0 0 0 0.5 0"/>
<feBlend mode="normal" in2="shape" result="effect1_innerShadow_32_2714"/>
</filter>
<filter id="filter5_f_32_2714" x="24.4963" y="15.7624" width="28.7756" height="28.7757" filterUnits="userSpaceOnUse" color-interpolation-filters="sRGB">
<feFlood flood-opacity="0" result="BackgroundImageFix"/>
<feBlend mode="normal" in="SourceGraphic" in2="BackgroundImageFix" result="shape"/>
<feGaussianBlur stdDeviation="5.13196" result="effect1_foregroundBlur_32_2714"/>
</filter>
<filter id="filter6_f_32_2714" x="30.3247" y="12.3534" width="14.4794" height="14.4795" filterUnits="userSpaceOnUse" color-interpolation-filters="sRGB">
<feFlood flood-opacity="0" result="BackgroundImageFix"/>
<feBlend mode="normal" in="SourceGraphic" in2="BackgroundImageFix" result="shape"/>
<feGaussianBlur stdDeviation="2.93255" result="effect1_foregroundBlur_32_2714"/>
</filter>
<filter id="filter7_d_32_2714" x="23.05" y="12.5" width="53.8823" height="85.0001" filterUnits="userSpaceOnUse" color-interpolation-filters="sRGB">
<feFlood flood-opacity="0" result="BackgroundImageFix"/>
<feColorMatrix in="SourceAlpha" type="matrix" values="0 0 0 0 0 0 0 0 0 0 0 0 0 0 0 0 0 0 127 0" result="hardAlpha"/>
<feOffset dy="5"/>
<feGaussianBlur stdDeviation="2.5"/>
<feComposite in2="hardAlpha" operator="out"/>
<feColorMatrix type="matrix" values="0 0 0 0 0 0 0 0 0 0 0 0 0 0 0 0 0 0 0.25 0"/>
<feBlend mode="normal" in2="BackgroundImageFix" result="effect1_dropShadow_32_2714"/>
<feBlend mode="normal" in="SourceGraphic" in2="effect1_dropShadow_32_2714" result="shape"/>
</filter>
<filter id="filter8_iii_32_2714" x="28.05" y="35.5206" width="44.4688" height="53.1525" filterUnits="userSpaceOnUse" color-interpolation-filters="sRGB">
<feFlood flood-opacity="0" result="BackgroundImageFix"/>
<feBlend mode="normal" in="SourceGraphic" in2="BackgroundImageFix" result="shape"/>
<feColorMatrix in="SourceAlpha" type="matrix" values="0 0 0 0 0 0 0 0 0 0 0 0 0 0 0 0 0 0 127 0" result="hardAlpha"/>
<feOffset dx="0.58651" dy="1.17302"/>
<feGaussianBlur stdDeviation="2.34604"/>
<feComposite in2="hardAlpha" operator="arithmetic" k2="-1" k3="1"/>
<feColorMatrix type="matrix" values="0 0 0 0 0 0 0 0 0 0 0 0 0 0 0 0 0 0 0.2 0"/>
<feBlend mode="multiply" in2="shape" result="effect1_innerShadow_32_2714"/>
<feColorMatrix in="SourceAlpha" type="matrix" values="0 0 0 0 0 0 0 0 0 0 0 0 0 0 0 0 0 0 127 0" result="hardAlpha"/>
<feOffset dy="-1.75952"/>
<feGaussianBlur stdDeviation="1.17302"/>
<feComposite in2="hardAlpha" operator="arithmetic" k2="-1" k3="1"/>
<feColorMatrix type="matrix" values="0 0 0 0 0 0 0 0 0 0 0 0 0 0 0 0 0 0 0.2 0"/>
<feBlend mode="normal" in2="effect1_innerShadow_32_2714" result="effect2_innerShadow_32_2714"/>
<feColorMatrix in="SourceAlpha" type="matrix" values="0 0 0 0 0 0 0 0 0 0 0 0 0 0 0 0 0 0 127 0" result="hardAlpha"/>
<feOffset dy="-4.69209"/>
<feGaussianBlur stdDeviation="2.93255"/>
<feComposite in2="hardAlpha" operator="arithmetic" k2="-1" k3="1"/>
<feColorMatrix type="matrix" values="0 0 0 0 0 0 0 0 0 0 0 0 0 0 0 0 0 0 0.15 0"/>
<feBlend mode="multiply" in2="effect2_innerShadow_32_2714" result="effect3_innerShadow_32_2714"/>
</filter>
<filter id="filter9_f_32_2714" x="40.6052" y="27.0877" width="34.5258" height="61.4406" filterUnits="userSpaceOnUse" color-interpolation-filters="sRGB">
<feFlood flood-opacity="0" result="BackgroundImageFix"/>
<feBlend mode="normal" in="SourceGraphic" in2="BackgroundImageFix" result="shape"/>
<feGaussianBlur stdDeviation="6.25" result="effect1_foregroundBlur_32_2714"/>
</filter>
<filter id="filter10_f_32_2714" x="41.0103" y="27.4927" width="33.5103" height="60.6306" filterUnits="userSpaceOnUse" color-interpolation-filters="sRGB">
<feFlood flood-opacity="0" result="BackgroundImageFix"/>
<feBlend mode="normal" in="SourceGraphic" in2="BackgroundImageFix" result="shape"/>
<feGaussianBlur stdDeviation="6.25" result="effect1_foregroundBlur_32_2714"/>
</filter>
<filter id="filter11_i_32_2714" x="33.2755" y="12.5" width="34.4576" height="33.7243" filterUnits="userSpaceOnUse" color-interpolation-filters="sRGB">
<feFlood flood-opacity="0" result="BackgroundImageFix"/>
<feBlend mode="normal" in="SourceGraphic" in2="BackgroundImageFix" result="shape"/>
<feColorMatrix in="SourceAlpha" type="matrix" values="0 0 0 0 0 0 0 0 0 0 0 0 0 0 0 0 0 0 127 0" result="hardAlpha"/>
<feOffset dx="1.46627" dy="0.733137"/>
<feGaussianBlur stdDeviation="7.33138"/>
<feComposite in2="hardAlpha" operator="arithmetic" k2="-1" k3="1"/>
<feColorMatrix type="matrix" values="0 0 0 0 0.6625 0 0 0 0 0 0 0 0 0 0 0 0 0 0.5 0"/>
<feBlend mode="normal" in2="shape" result="effect1_innerShadow_32_2714"/>
</filter>
<filter id="filter12_f_32_2714" x="43.2463" y="15.7624" width="28.7756" height="28.7757" filterUnits="userSpaceOnUse" color-interpolation-filters="sRGB">
<feFlood flood-opacity="0" result="BackgroundImageFix"/>
<feBlend mode="normal" in="SourceGraphic" in2="BackgroundImageFix" result="shape"/>
<feGaussianBlur stdDeviation="5.13196" result="effect1_foregroundBlur_32_2714"/>
</filter>
<filter id="filter13_f_32_2714" x="49.0747" y="12.3534" width="14.4794" height="14.4795" filterUnits="userSpaceOnUse" color-interpolation-filters="sRGB">
<feFlood flood-opacity="0" result="BackgroundImageFix"/>
<feBlend mode="normal" in="SourceGraphic" in2="BackgroundImageFix" result="shape"/>
<feGaussianBlur stdDeviation="2.93255" result="effect1_foregroundBlur_32_2714"/>
</filter>
<filter id="filter14_d_32_2714" x="41.8" y="12.5" width="53.8823" height="85.0001" filterUnits="userSpaceOnUse" color-interpolation-filters="sRGB">
<feFlood flood-opacity="0" result="BackgroundImageFix"/>
<feColorMatrix in="SourceAlpha" type="matrix" values="0 0 0 0 0 0 0 0 0 0 0 0 0 0 0 0 0 0 127 0" result="hardAlpha"/>
<feOffset dy="5"/>
<feGaussianBlur stdDeviation="2.5"/>
<feComposite in2="hardAlpha" operator="out"/>
<feColorMatrix type="matrix" values="0 0 0 0 0 0 0 0 0 0 0 0 0 0 0 0 0 0 0.25 0"/>
<feBlend mode="normal" in2="BackgroundImageFix" result="effect1_dropShadow_32_2714"/>
<feBlend mode="normal" in="SourceGraphic" in2="effect1_dropShadow_32_2714" result="shape"/>
</filter>
<filter id="filter15_iii_32_2714" x="46.8" y="35.5206" width="44.4688" height="53.1525" filterUnits="userSpaceOnUse" color-interpolation-filters="sRGB">
<feFlood flood-opacity="0" result="BackgroundImageFix"/>
<feBlend mode="normal" in="SourceGraphic" in2="BackgroundImageFix" result="shape"/>
<feColorMatrix in="SourceAlpha" type="matrix" values="0 0 0 0 0 0 0 0 0 0 0 0 0 0 0 0 0 0 127 0" result="hardAlpha"/>
<feOffset dx="0.58651" dy="1.17302"/>
<feGaussianBlur stdDeviation="2.34604"/>
<feComposite in2="hardAlpha" operator="arithmetic" k2="-1" k3="1"/>
<feColorMatrix type="matrix" values="0 0 0 0 0 0 0 0 0 0 0 0 0 0 0 0 0 0 0.2 0"/>
<feBlend mode="multiply" in2="shape" result="effect1_innerShadow_32_2714"/>
<feColorMatrix in="SourceAlpha" type="matrix" values="0 0 0 0 0 0 0 0 0 0 0 0 0 0 0 0 0 0 127 0" result="hardAlpha"/>
<feOffset dy="-1.75952"/>
<feGaussianBlur stdDeviation="1.17302"/>
<feComposite in2="hardAlpha" operator="arithmetic" k2="-1" k3="1"/>
<feColorMatrix type="matrix" values="0 0 0 0 0 0 0 0 0 0 0 0 0 0 0 0 0 0 0.2 0"/>
<feBlend mode="normal" in2="effect1_innerShadow_32_2714" result="effect2_innerShadow_32_2714"/>
<feColorMatrix in="SourceAlpha" type="matrix" values="0 0 0 0 0 0 0 0 0 0 0 0 0 0 0 0 0 0 127 0" result="hardAlpha"/>
<feOffset dy="-4.69209"/>
<feGaussianBlur stdDeviation="2.93255"/>
<feComposite in2="hardAlpha" operator="arithmetic" k2="-1" k3="1"/>
<feColorMatrix type="matrix" values="0 0 0 0 0 0 0 0 0 0 0 0 0 0 0 0 0 0 0.15 0"/>
<feBlend mode="multiply" in2="effect2_innerShadow_32_2714" result="effect3_innerShadow_32_2714"/>
</filter>
<filter id="filter16_f_32_2714" x="59.3552" y="27.0877" width="34.5258" height="61.4406" filterUnits="userSpaceOnUse" color-interpolation-filters="sRGB">
<feFlood flood-opacity="0" result="BackgroundImageFix"/>
<feBlend mode="normal" in="SourceGraphic" in2="BackgroundImageFix" result="shape"/>
<feGaussianBlur stdDeviation="6.25" result="effect1_foregroundBlur_32_2714"/>
</filter>
<filter id="filter17_f_32_2714" x="59.7603" y="27.4927" width="33.5103" height="60.6306" filterUnits="userSpaceOnUse" color-interpolation-filters="sRGB">
<feFlood flood-opacity="0" result="BackgroundImageFix"/>
<feBlend mode="normal" in="SourceGraphic" in2="BackgroundImageFix" result="shape"/>
<feGaussianBlur stdDeviation="6.25" result="effect1_foregroundBlur_32_2714"/>
</filter>
<filter id="filter18_i_32_2714" x="52.0255" y="12.5" width="34.4576" height="33.7243" filterUnits="userSpaceOnUse" color-interpolation-filters="sRGB">
<feFlood flood-opacity="0" result="BackgroundImageFix"/>
<feBlend mode="normal" in="SourceGraphic" in2="BackgroundImageFix" result="shape"/>
<feColorMatrix in="SourceAlpha" type="matrix" values="0 0 0 0 0 0 0 0 0 0 0 0 0 0 0 0 0 0 127 0" result="hardAlpha"/>
<feOffset dx="1.46627" dy="0.733137"/>
<feGaussianBlur stdDeviation="7.33138"/>
<feComposite in2="hardAlpha" operator="arithmetic" k2="-1" k3="1"/>
<feColorMatrix type="matrix" values="0 0 0 0 0.6625 0 0 0 0 0 0 0 0 0 0 0 0 0 0.5 0"/>
<feBlend mode="normal" in2="shape" result="effect1_innerShadow_32_2714"/>
</filter>
<filter id="filter19_f_32_2714" x="61.9963" y="15.7624" width="28.7756" height="28.7757" filterUnits="userSpaceOnUse" color-interpolation-filters="sRGB">
<feFlood flood-opacity="0" result="BackgroundImageFix"/>
<feBlend mode="normal" in="SourceGraphic" in2="BackgroundImageFix" result="shape"/>
<feGaussianBlur stdDeviation="5.13196" result="effect1_foregroundBlur_32_2714"/>
</filter>
<filter id="filter20_f_32_2714" x="67.8247" y="12.3534" width="14.4794" height="14.4795" filterUnits="userSpaceOnUse" color-interpolation-filters="sRGB">
<feFlood flood-opacity="0" result="BackgroundImageFix"/>
<feBlend mode="normal" in="SourceGraphic" in2="BackgroundImageFix" result="shape"/>
<feGaussianBlur stdDeviation="2.93255" result="effect1_foregroundBlur_32_2714"/>
</filter>
<linearGradient id="paint0_linear_32_2714" x1="39.1591" y1="75.4033" x2="35.2001" y2="40.2127" gradientUnits="userSpaceOnUse">
<stop stop-color="white"/>
<stop offset="1" stop-color="white" stop-opacity="0"/>
</linearGradient>
<linearGradient id="paint1_linear_32_2714" x1="57.9091" y1="75.4033" x2="53.9501" y2="40.2127" gradientUnits="userSpaceOnUse">
<stop stop-color="white"/>
<stop offset="1" stop-color="white" stop-opacity="0"/>
</linearGradient>
<linearGradient id="paint2_linear_32_2714" x1="76.6591" y1="75.4033" x2="72.7001" y2="40.2127" gradientUnits="userSpaceOnUse">
<stop stop-color="white"/>
<stop offset="1" stop-color="white" stop-opacity="0"/>
</linearGradient>
</defs>
</svg>
