<svg width="100" height="100" viewBox="0 0 100 100" fill="none" xmlns="http://www.w3.org/2000/svg">
<g clip-path="url(#clip0_32_2782)">
<g filter="url(#filter0_d_32_2782)">
<mask id="mask0_32_2782" style="mask-type:alpha" maskUnits="userSpaceOnUse" x="1" y="40" width="45" height="48">
<path d="M34.7382 40.2126C34.7382 40.2126 34.7382 57.0958 45.0743 74.3241C45.4985 75.031 45.7575 75.8431 45.6628 76.6621C45.5531 77.6108 45.3205 78.5352 44.9763 79.4275C42.3003 86.363 33.4484 87.5001 26.0146 87.5001H21.4677C14.0338 87.5001 5.18192 86.363 2.50601 79.4275C2.16167 78.5352 1.92917 77.6108 1.81948 76.6621C1.72479 75.8431 1.98373 75.031 2.40786 74.3241C12.744 57.0958 12.7441 40.2126 12.7441 40.2126H34.7382Z" fill="#ff0000"/>
</mask>
<g mask="url(#mask0_32_2782)">
<g filter="url(#filter1_iii_32_2782)">
<path d="M34.7382 40.2126C34.7382 40.2126 34.7382 57.0958 45.0743 74.3241C45.4985 75.031 45.7575 75.8431 45.6628 76.6621C45.5531 77.6108 45.3205 78.5352 44.9763 79.4275C42.3003 86.363 33.4484 87.5001 26.0146 87.5001H21.4677C14.0338 87.5001 5.18192 86.363 2.50601 79.4275C2.16167 78.5352 1.92917 77.6108 1.81948 76.6621C1.72479 75.8431 1.98373 75.031 2.40786 74.3241C12.744 57.0958 12.7441 40.2126 12.7441 40.2126H34.7382Z" fill="#FFFF00"/>
</g>
<g filter="url(#filter2_f_32_2782)">
<path d="M28.7998 40.2127C28.7998 49.1916 30.0662 62.6706 35.4389 75.4033H34.0083C28.7172 62.5881 27.4802 49.1477 27.4802 40.2127H28.7998Z" fill="url(#paint0_linear_32_2782)"/>
<path d="M28.7998 40.2127C28.7998 49.1916 30.0662 62.6706 35.4389 75.4033H34.0083C28.7172 62.5881 27.4802 49.1477 27.4802 40.2127H28.7998Z" stroke="white" stroke-width="1.25"/>
</g>
<g filter="url(#filter3_f_32_2782)">
<path d="M29.0197 39.9927V40.2126C29.0197 49.1749 30.2844 62.6218 35.6416 75.3178L35.7705 75.6232H33.861L33.8052 75.487C28.4991 62.6359 27.2602 49.1642 27.2602 40.2126V39.9927H29.0197ZM27.7009 40.4326C27.7211 49.3188 28.9699 62.5497 34.1561 75.1833H35.1089C29.8718 62.608 28.6011 49.3554 28.5807 40.4326H27.7009Z" fill="white"/>
</g>
</g>
<mask id="mask1_32_2782" style="mask-type:alpha" maskUnits="userSpaceOnUse" x="7" y="12" width="34" height="32">
<path d="M23.5212 12.5C32.6315 12.5 40.0168 19.8853 40.0168 28.9956C40.0168 32.151 39.1307 35.0995 37.5938 37.6058C34.774 42.2043 28.9154 43.2918 23.5212 43.2918C18.1269 43.2918 12.2683 42.2043 9.44848 37.6058C7.91164 35.0995 7.02551 32.151 7.02551 28.9956C7.02551 19.8853 14.4109 12.5 23.5212 12.5Z" fill="#D9D9D9"/>
</mask>
<g mask="url(#mask1_32_2782)">
<g filter="url(#filter4_i_32_2782)">
<path d="M40.0168 28.9956C40.0168 38.1058 32.6315 45.4912 23.5212 45.4912C14.4109 45.4912 7.02551 38.1058 7.02551 28.9956C7.02551 19.8853 14.4109 12.5 23.5212 12.5C32.6315 12.5 40.0168 19.8853 40.0168 28.9956Z" fill="#FFFF00"/>
</g>
<g filter="url(#filter5_f_32_2782)">
<path d="M35.508 30.1503C35.508 32.4278 33.6617 34.2741 31.3841 34.2741C29.1065 34.2741 27.2602 32.4278 27.2602 30.1503C27.2602 27.8727 29.1065 26.0263 31.3841 26.0263C33.6617 26.0263 35.508 27.8727 35.508 30.1503Z" fill="white"/>
</g>
<g filter="url(#filter6_f_32_2782)">
<path d="M31.439 19.5932C31.439 20.3523 30.8236 20.9678 30.0644 20.9678C29.3052 20.9678 28.6898 20.3523 28.6898 19.5932C28.6898 18.834 29.3052 18.2185 30.0644 18.2185C30.8236 18.2185 31.439 18.834 31.439 19.5932Z" fill="white"/>
</g>
</g>
</g>
<g filter="url(#filter7_d_32_2782)">
<mask id="mask2_32_2782" style="mask-type:alpha" maskUnits="userSpaceOnUse" x="19" y="40" width="45" height="48">
<path d="M52.2382 40.2126C52.2382 40.2126 52.2382 57.0958 62.5743 74.3241C62.9985 75.031 63.2575 75.8431 63.1628 76.6621C63.0531 77.6108 62.8205 78.5352 62.4763 79.4275C59.8003 86.363 50.9484 87.5001 43.5146 87.5001H38.9677C31.5338 87.5001 22.6819 86.363 20.006 79.4275C19.6617 78.5352 19.4292 77.6108 19.3195 76.6621C19.2248 75.8431 19.4837 75.031 19.9079 74.3241C30.244 57.0958 30.2441 40.2126 30.2441 40.2126H52.2382Z" fill="#ff0000"/>
</mask>
<g mask="url(#mask2_32_2782)">
<g filter="url(#filter8_iii_32_2782)">
<path d="M52.2382 40.2126C52.2382 40.2126 52.2382 57.0958 62.5743 74.3241C62.9985 75.031 63.2575 75.8431 63.1628 76.6621C63.0531 77.6108 62.8205 78.5352 62.4763 79.4275C59.8003 86.363 50.9484 87.5001 43.5146 87.5001H38.9677C31.5338 87.5001 22.6819 86.363 20.006 79.4275C19.6617 78.5352 19.4292 77.6108 19.3195 76.6621C19.2248 75.8431 19.4837 75.031 19.9079 74.3241C30.244 57.0958 30.2441 40.2126 30.2441 40.2126H52.2382Z" fill="#00FF00"/>
</g>
<g filter="url(#filter9_f_32_2782)">
<path d="M46.2998 40.2127C46.2998 49.1916 47.5662 62.6706 52.9389 75.4033H51.5083C46.2172 62.5881 44.9802 49.1477 44.9802 40.2127H46.2998Z" fill="url(#paint1_linear_32_2782)"/>
<path d="M46.2998 40.2127C46.2998 49.1916 47.5662 62.6706 52.9389 75.4033H51.5083C46.2172 62.5881 44.9802 49.1477 44.9802 40.2127H46.2998Z" stroke="white" stroke-width="1.25"/>
</g>
<g filter="url(#filter10_f_32_2782)">
<path d="M46.5197 39.9927V40.2126C46.5197 49.1749 47.7844 62.6218 53.1416 75.3178L53.2705 75.6232H51.361L51.3052 75.487C45.9991 62.6359 44.7602 49.1642 44.7602 40.2126V39.9927H46.5197ZM45.2009 40.4326C45.2211 49.3188 46.4699 62.5497 51.6561 75.1833H52.6089C47.3718 62.608 46.1011 49.3554 46.0807 40.4326H45.2009Z" fill="white"/>
</g>
</g>
<mask id="mask3_32_2782" style="mask-type:alpha" maskUnits="userSpaceOnUse" x="24" y="12" width="34" height="32">
<path d="M41.0212 12.5C50.1315 12.5 57.5168 19.8853 57.5168 28.9956C57.5168 32.151 56.6307 35.0995 55.0938 37.6058C52.274 42.2043 46.4154 43.2918 41.0212 43.2918C35.6269 43.2918 29.7683 42.2043 26.9485 37.6058C25.4116 35.0995 24.5255 32.151 24.5255 28.9956C24.5255 19.8853 31.9109 12.5 41.0212 12.5Z" fill="#D9D9D9"/>
</mask>
<g mask="url(#mask3_32_2782)">
<g filter="url(#filter11_i_32_2782)">
<path d="M57.5168 28.9956C57.5168 38.1058 50.1315 45.4912 41.0212 45.4912C31.9109 45.4912 24.5255 38.1058 24.5255 28.9956C24.5255 19.8853 31.9109 12.5 41.0212 12.5C50.1315 12.5 57.5168 19.8853 57.5168 28.9956Z" fill="#00FF00"/>
</g>
<g filter="url(#filter12_f_32_2782)">
<path d="M53.008 30.1503C53.008 32.4278 51.1617 34.2741 48.8841 34.2741C46.6065 34.2741 44.7602 32.4278 44.7602 30.1503C44.7602 27.8727 46.6065 26.0263 48.8841 26.0263C51.1617 26.0263 53.008 27.8727 53.008 30.1503Z" fill="white"/>
</g>
<g filter="url(#filter13_f_32_2782)">
<path d="M48.939 19.5932C48.939 20.3523 48.3236 20.9678 47.5644 20.9678C46.8052 20.9678 46.1898 20.3523 46.1898 19.5932C46.1898 18.834 46.8052 18.2185 47.5644 18.2185C48.3236 18.2185 48.939 18.834 48.939 19.5932Z" fill="white"/>
</g>
</g>
</g>
<g filter="url(#filter14_d_32_2782)">
<mask id="mask4_32_2782" style="mask-type:alpha" maskUnits="userSpaceOnUse" x="36" y="40" width="45" height="48">
<path d="M69.7382 40.2126C69.7382 40.2126 69.7382 57.0958 80.0743 74.3241C80.4985 75.031 80.7575 75.8431 80.6628 76.6621C80.5531 77.6108 80.3205 78.5352 79.9763 79.4275C77.3003 86.363 68.4484 87.5001 61.0146 87.5001H56.4677C49.0338 87.5001 40.1819 86.363 37.506 79.4275C37.1617 78.5352 36.9292 77.6108 36.8195 76.6621C36.7248 75.8431 36.9837 75.031 37.4079 74.3241C47.744 57.0958 47.7441 40.2126 47.7441 40.2126H69.7382Z" fill="#ff0000"/>
</mask>
<g mask="url(#mask4_32_2782)">
<g filter="url(#filter15_iii_32_2782)">
<path d="M69.7382 40.2126C69.7382 40.2126 69.7382 57.0958 80.0743 74.3241C80.4985 75.031 80.7575 75.8431 80.6628 76.6621C80.5531 77.6108 80.3205 78.5352 79.9763 79.4275C77.3003 86.363 68.4484 87.5001 61.0146 87.5001H56.4677C49.0338 87.5001 40.1819 86.363 37.506 79.4275C37.1617 78.5352 36.9292 77.6108 36.8195 76.6621C36.7248 75.8431 36.9837 75.031 37.4079 74.3241C47.744 57.0958 47.7441 40.2126 47.7441 40.2126H69.7382Z" fill="#ff0000"/>
</g>
<g filter="url(#filter16_f_32_2782)">
<path d="M63.7998 40.2127C63.7998 49.1916 65.0662 62.6706 70.4389 75.4033H69.0083C63.7172 62.5881 62.4802 49.1477 62.4802 40.2127H63.7998Z" fill="url(#paint2_linear_32_2782)"/>
<path d="M63.7998 40.2127C63.7998 49.1916 65.0662 62.6706 70.4389 75.4033H69.0083C63.7172 62.5881 62.4802 49.1477 62.4802 40.2127H63.7998Z" stroke="white" stroke-width="1.25"/>
</g>
<g filter="url(#filter17_f_32_2782)">
<path d="M64.0197 39.9927V40.2126C64.0197 49.1749 65.2844 62.6218 70.6416 75.3178L70.7705 75.6232H68.861L68.8052 75.487C63.4991 62.6359 62.2602 49.1642 62.2602 40.2126V39.9927H64.0197ZM62.7009 40.4326C62.7211 49.3188 63.9699 62.5497 69.1561 75.1833H70.1089C64.8718 62.608 63.6011 49.3554 63.5807 40.4326H62.7009Z" fill="white"/>
</g>
</g>
<mask id="mask5_32_2782" style="mask-type:alpha" maskUnits="userSpaceOnUse" x="42" y="12" width="34" height="32">
<path d="M58.5212 12.5C67.6315 12.5 75.0168 19.8853 75.0168 28.9956C75.0168 32.151 74.1307 35.0995 72.5938 37.6058C69.774 42.2043 63.9154 43.2918 58.5212 43.2918C53.1269 43.2918 47.2683 42.2043 44.4485 37.6058C42.9116 35.0995 42.0255 32.151 42.0255 28.9956C42.0255 19.8853 49.4109 12.5 58.5212 12.5Z" fill="#D9D9D9"/>
</mask>
<g mask="url(#mask5_32_2782)">
<g filter="url(#filter18_i_32_2782)">
<path d="M75.0168 28.9956C75.0168 38.1058 67.6315 45.4912 58.5212 45.4912C49.4109 45.4912 42.0255 38.1058 42.0255 28.9956C42.0255 19.8853 49.4109 12.5 58.5212 12.5C67.6315 12.5 75.0168 19.8853 75.0168 28.9956Z" fill="#ff0000"/>
</g>
<g filter="url(#filter19_f_32_2782)">
<path d="M70.508 30.1503C70.508 32.4278 68.6617 34.2741 66.3841 34.2741C64.1065 34.2741 62.2602 32.4278 62.2602 30.1503C62.2602 27.8727 64.1065 26.0263 66.3841 26.0263C68.6617 26.0263 70.508 27.8727 70.508 30.1503Z" fill="white"/>
</g>
<g filter="url(#filter20_f_32_2782)">
<path d="M66.439 19.5932C66.439 20.3523 65.8236 20.9678 65.0644 20.9678C64.3052 20.9678 63.6898 20.3523 63.6898 19.5932C63.6898 18.834 64.3052 18.2185 65.0644 18.2185C65.8236 18.2185 66.439 18.834 66.439 19.5932Z" fill="white"/>
</g>
</g>
</g>
<g filter="url(#filter21_d_32_2782)">
<mask id="mask6_32_2782" style="mask-type:alpha" maskUnits="userSpaceOnUse" x="54" y="40" width="45" height="48">
<path d="M87.2382 40.2126C87.2382 40.2126 87.2382 57.0958 97.5743 74.3241C97.9985 75.031 98.2575 75.8431 98.1628 76.6621C98.0531 77.6108 97.8205 78.5352 97.4763 79.4275C94.8003 86.363 85.9484 87.5001 78.5146 87.5001H73.9677C66.5338 87.5001 57.6819 86.363 55.006 79.4275C54.6617 78.5352 54.4292 77.6108 54.3195 76.6621C54.2248 75.8431 54.4837 75.031 54.9079 74.3241C65.244 57.0958 65.2441 40.2126 65.2441 40.2126H87.2382Z" fill="#ff0000"/>
</mask>
<g mask="url(#mask6_32_2782)">
<g filter="url(#filter22_iii_32_2782)">
<path d="M87.2382 40.2126C87.2382 40.2126 87.2382 57.0958 97.5743 74.3241C97.9985 75.031 98.2575 75.8431 98.1628 76.6621C98.0531 77.6108 97.8205 78.5352 97.4763 79.4275C94.8003 86.363 85.9484 87.5001 78.5146 87.5001H73.9677C66.5338 87.5001 57.6819 86.363 55.006 79.4275C54.6617 78.5352 54.4292 77.6108 54.3195 76.6621C54.2248 75.8431 54.4837 75.031 54.9079 74.3241C65.244 57.0958 65.2441 40.2126 65.2441 40.2126H87.2382Z" fill="#0000FF"/>
</g>
<g filter="url(#filter23_f_32_2782)">
<path d="M81.2998 40.2127C81.2998 49.1916 82.5662 62.6706 87.9389 75.4033H86.5083C81.2172 62.5881 79.9802 49.1477 79.9802 40.2127H81.2998Z" fill="url(#paint3_linear_32_2782)"/>
<path d="M81.2998 40.2127C81.2998 49.1916 82.5662 62.6706 87.9389 75.4033H86.5083C81.2172 62.5881 79.9802 49.1477 79.9802 40.2127H81.2998Z" stroke="white" stroke-width="1.25"/>
</g>
<g filter="url(#filter24_f_32_2782)">
<path d="M81.5197 39.9927V40.2126C81.5197 49.1749 82.7844 62.6218 88.1416 75.3178L88.2705 75.6232H86.361L86.3052 75.487C80.9991 62.6359 79.7602 49.1642 79.7602 40.2126V39.9927H81.5197ZM80.2009 40.4326C80.2211 49.3188 81.4699 62.5497 86.6561 75.1833H87.6089C82.3718 62.608 81.1011 49.3554 81.0807 40.4326H80.2009Z" fill="white"/>
</g>
</g>
<mask id="mask7_32_2782" style="mask-type:alpha" maskUnits="userSpaceOnUse" x="59" y="12" width="34" height="32">
<path d="M76.0212 12.5C85.1315 12.5 92.5168 19.8853 92.5168 28.9956C92.5168 32.151 91.6307 35.0995 90.0938 37.6058C87.274 42.2043 81.4154 43.2918 76.0212 43.2918C70.6269 43.2918 64.7683 42.2043 61.9485 37.6058C60.4116 35.0995 59.5255 32.151 59.5255 28.9956C59.5255 19.8853 66.9109 12.5 76.0212 12.5Z" fill="#D9D9D9"/>
</mask>
<g mask="url(#mask7_32_2782)">
<g filter="url(#filter25_i_32_2782)">
<path d="M92.5168 28.9956C92.5168 38.1058 85.1315 45.4912 76.0212 45.4912C66.9109 45.4912 59.5255 38.1058 59.5255 28.9956C59.5255 19.8853 66.9109 12.5 76.0212 12.5C85.1315 12.5 92.5168 19.8853 92.5168 28.9956Z" fill="#0000FF"/>
</g>
<g filter="url(#filter26_f_32_2782)">
<path d="M88.008 30.1503C88.008 32.4278 86.1617 34.2741 83.8841 34.2741C81.6065 34.2741 79.7602 32.4278 79.7602 30.1503C79.7602 27.8727 81.6065 26.0263 83.8841 26.0263C86.1617 26.0263 88.008 27.8727 88.008 30.1503Z" fill="white"/>
</g>
<g filter="url(#filter27_f_32_2782)">
<path d="M83.939 19.5932C83.939 20.3523 83.3236 20.9678 82.5644 20.9678C81.8052 20.9678 81.1898 20.3523 81.1898 19.5932C81.1898 18.834 81.8052 18.2185 82.5644 18.2185C83.3236 18.2185 83.939 18.834 83.939 19.5932Z" fill="white"/>
</g>
</g>
</g>
</g>
<defs>
<filter id="filter0_d_32_2782" x="-3.20001" y="12.5" width="53.8823" height="85.0001" filterUnits="userSpaceOnUse" color-interpolation-filters="sRGB">
<feFlood flood-opacity="0" result="BackgroundImageFix"/>
<feColorMatrix in="SourceAlpha" type="matrix" values="0 0 0 0 0 0 0 0 0 0 0 0 0 0 0 0 0 0 127 0" result="hardAlpha"/>
<feOffset dy="5"/>
<feGaussianBlur stdDeviation="2.5"/>
<feComposite in2="hardAlpha" operator="out"/>
<feColorMatrix type="matrix" values="0 0 0 0 0 0 0 0 0 0 0 0 0 0 0 0 0 0 0.25 0"/>
<feBlend mode="normal" in2="BackgroundImageFix" result="effect1_dropShadow_32_2782"/>
<feBlend mode="normal" in="SourceGraphic" in2="effect1_dropShadow_32_2782" result="shape"/>
</filter>
<filter id="filter1_iii_32_2782" x="1.79999" y="35.5206" width="44.4688" height="53.1525" filterUnits="userSpaceOnUse" color-interpolation-filters="sRGB">
<feFlood flood-opacity="0" result="BackgroundImageFix"/>
<feBlend mode="normal" in="SourceGraphic" in2="BackgroundImageFix" result="shape"/>
<feColorMatrix in="SourceAlpha" type="matrix" values="0 0 0 0 0 0 0 0 0 0 0 0 0 0 0 0 0 0 127 0" result="hardAlpha"/>
<feOffset dx="0.58651" dy="1.17302"/>
<feGaussianBlur stdDeviation="2.34604"/>
<feComposite in2="hardAlpha" operator="arithmetic" k2="-1" k3="1"/>
<feColorMatrix type="matrix" values="0 0 0 0 0 0 0 0 0 0 0 0 0 0 0 0 0 0 0.2 0"/>
<feBlend mode="multiply" in2="shape" result="effect1_innerShadow_32_2782"/>
<feColorMatrix in="SourceAlpha" type="matrix" values="0 0 0 0 0 0 0 0 0 0 0 0 0 0 0 0 0 0 127 0" result="hardAlpha"/>
<feOffset dy="-1.75952"/>
<feGaussianBlur stdDeviation="1.17302"/>
<feComposite in2="hardAlpha" operator="arithmetic" k2="-1" k3="1"/>
<feColorMatrix type="matrix" values="0 0 0 0 0 0 0 0 0 0 0 0 0 0 0 0 0 0 0.2 0"/>
<feBlend mode="normal" in2="effect1_innerShadow_32_2782" result="effect2_innerShadow_32_2782"/>
<feColorMatrix in="SourceAlpha" type="matrix" values="0 0 0 0 0 0 0 0 0 0 0 0 0 0 0 0 0 0 127 0" result="hardAlpha"/>
<feOffset dy="-4.69209"/>
<feGaussianBlur stdDeviation="2.93255"/>
<feComposite in2="hardAlpha" operator="arithmetic" k2="-1" k3="1"/>
<feColorMatrix type="matrix" values="0 0 0 0 0 0 0 0 0 0 0 0 0 0 0 0 0 0 0.15 0"/>
<feBlend mode="multiply" in2="effect2_innerShadow_32_2782" result="effect3_innerShadow_32_2782"/>
</filter>
<filter id="filter2_f_32_2782" x="14.3552" y="27.0877" width="34.5258" height="61.4406" filterUnits="userSpaceOnUse" color-interpolation-filters="sRGB">
<feFlood flood-opacity="0" result="BackgroundImageFix"/>
<feBlend mode="normal" in="SourceGraphic" in2="BackgroundImageFix" result="shape"/>
<feGaussianBlur stdDeviation="6.25" result="effect1_foregroundBlur_32_2782"/>
</filter>
<filter id="filter3_f_32_2782" x="14.7602" y="27.4927" width="33.5103" height="60.6306" filterUnits="userSpaceOnUse" color-interpolation-filters="sRGB">
<feFlood flood-opacity="0" result="BackgroundImageFix"/>
<feBlend mode="normal" in="SourceGraphic" in2="BackgroundImageFix" result="shape"/>
<feGaussianBlur stdDeviation="6.25" result="effect1_foregroundBlur_32_2782"/>
</filter>
<filter id="filter4_i_32_2782" x="7.02551" y="12.5" width="34.4576" height="33.7243" filterUnits="userSpaceOnUse" color-interpolation-filters="sRGB">
<feFlood flood-opacity="0" result="BackgroundImageFix"/>
<feBlend mode="normal" in="SourceGraphic" in2="BackgroundImageFix" result="shape"/>
<feColorMatrix in="SourceAlpha" type="matrix" values="0 0 0 0 0 0 0 0 0 0 0 0 0 0 0 0 0 0 127 0" result="hardAlpha"/>
<feOffset dx="1.46627" dy="0.733137"/>
<feGaussianBlur stdDeviation="7.33138"/>
<feComposite in2="hardAlpha" operator="arithmetic" k2="-1" k3="1"/>
<feColorMatrix type="matrix" values="0 0 0 0 0.6625 0 0 0 0 0 0 0 0 0 0 0 0 0 0.5 0"/>
<feBlend mode="normal" in2="shape" result="effect1_innerShadow_32_2782"/>
</filter>
<filter id="filter5_f_32_2782" x="16.9963" y="15.7624" width="28.7756" height="28.7757" filterUnits="userSpaceOnUse" color-interpolation-filters="sRGB">
<feFlood flood-opacity="0" result="BackgroundImageFix"/>
<feBlend mode="normal" in="SourceGraphic" in2="BackgroundImageFix" result="shape"/>
<feGaussianBlur stdDeviation="5.13196" result="effect1_foregroundBlur_32_2782"/>
</filter>
<filter id="filter6_f_32_2782" x="22.8247" y="12.3534" width="14.4794" height="14.4795" filterUnits="userSpaceOnUse" color-interpolation-filters="sRGB">
<feFlood flood-opacity="0" result="BackgroundImageFix"/>
<feBlend mode="normal" in="SourceGraphic" in2="BackgroundImageFix" result="shape"/>
<feGaussianBlur stdDeviation="2.93255" result="effect1_foregroundBlur_32_2782"/>
</filter>
<filter id="filter7_d_32_2782" x="14.3" y="12.5" width="53.8823" height="85.0001" filterUnits="userSpaceOnUse" color-interpolation-filters="sRGB">
<feFlood flood-opacity="0" result="BackgroundImageFix"/>
<feColorMatrix in="SourceAlpha" type="matrix" values="0 0 0 0 0 0 0 0 0 0 0 0 0 0 0 0 0 0 127 0" result="hardAlpha"/>
<feOffset dy="5"/>
<feGaussianBlur stdDeviation="2.5"/>
<feComposite in2="hardAlpha" operator="out"/>
<feColorMatrix type="matrix" values="0 0 0 0 0 0 0 0 0 0 0 0 0 0 0 0 0 0 0.25 0"/>
<feBlend mode="normal" in2="BackgroundImageFix" result="effect1_dropShadow_32_2782"/>
<feBlend mode="normal" in="SourceGraphic" in2="effect1_dropShadow_32_2782" result="shape"/>
</filter>
<filter id="filter8_iii_32_2782" x="19.3" y="35.5206" width="44.4688" height="53.1525" filterUnits="userSpaceOnUse" color-interpolation-filters="sRGB">
<feFlood flood-opacity="0" result="BackgroundImageFix"/>
<feBlend mode="normal" in="SourceGraphic" in2="BackgroundImageFix" result="shape"/>
<feColorMatrix in="SourceAlpha" type="matrix" values="0 0 0 0 0 0 0 0 0 0 0 0 0 0 0 0 0 0 127 0" result="hardAlpha"/>
<feOffset dx="0.58651" dy="1.17302"/>
<feGaussianBlur stdDeviation="2.34604"/>
<feComposite in2="hardAlpha" operator="arithmetic" k2="-1" k3="1"/>
<feColorMatrix type="matrix" values="0 0 0 0 0 0 0 0 0 0 0 0 0 0 0 0 0 0 0.2 0"/>
<feBlend mode="multiply" in2="shape" result="effect1_innerShadow_32_2782"/>
<feColorMatrix in="SourceAlpha" type="matrix" values="0 0 0 0 0 0 0 0 0 0 0 0 0 0 0 0 0 0 127 0" result="hardAlpha"/>
<feOffset dy="-1.75952"/>
<feGaussianBlur stdDeviation="1.17302"/>
<feComposite in2="hardAlpha" operator="arithmetic" k2="-1" k3="1"/>
<feColorMatrix type="matrix" values="0 0 0 0 0 0 0 0 0 0 0 0 0 0 0 0 0 0 0.2 0"/>
<feBlend mode="normal" in2="effect1_innerShadow_32_2782" result="effect2_innerShadow_32_2782"/>
<feColorMatrix in="SourceAlpha" type="matrix" values="0 0 0 0 0 0 0 0 0 0 0 0 0 0 0 0 0 0 127 0" result="hardAlpha"/>
<feOffset dy="-4.69209"/>
<feGaussianBlur stdDeviation="2.93255"/>
<feComposite in2="hardAlpha" operator="arithmetic" k2="-1" k3="1"/>
<feColorMatrix type="matrix" values="0 0 0 0 0 0 0 0 0 0 0 0 0 0 0 0 0 0 0.15 0"/>
<feBlend mode="multiply" in2="effect2_innerShadow_32_2782" result="effect3_innerShadow_32_2782"/>
</filter>
<filter id="filter9_f_32_2782" x="31.8552" y="27.0877" width="34.5258" height="61.4406" filterUnits="userSpaceOnUse" color-interpolation-filters="sRGB">
<feFlood flood-opacity="0" result="BackgroundImageFix"/>
<feBlend mode="normal" in="SourceGraphic" in2="BackgroundImageFix" result="shape"/>
<feGaussianBlur stdDeviation="6.25" result="effect1_foregroundBlur_32_2782"/>
</filter>
<filter id="filter10_f_32_2782" x="32.2602" y="27.4927" width="33.5103" height="60.6306" filterUnits="userSpaceOnUse" color-interpolation-filters="sRGB">
<feFlood flood-opacity="0" result="BackgroundImageFix"/>
<feBlend mode="normal" in="SourceGraphic" in2="BackgroundImageFix" result="shape"/>
<feGaussianBlur stdDeviation="6.25" result="effect1_foregroundBlur_32_2782"/>
</filter>
<filter id="filter11_i_32_2782" x="24.5255" y="12.5" width="34.4576" height="33.7243" filterUnits="userSpaceOnUse" color-interpolation-filters="sRGB">
<feFlood flood-opacity="0" result="BackgroundImageFix"/>
<feBlend mode="normal" in="SourceGraphic" in2="BackgroundImageFix" result="shape"/>
<feColorMatrix in="SourceAlpha" type="matrix" values="0 0 0 0 0 0 0 0 0 0 0 0 0 0 0 0 0 0 127 0" result="hardAlpha"/>
<feOffset dx="1.46627" dy="0.733137"/>
<feGaussianBlur stdDeviation="7.33138"/>
<feComposite in2="hardAlpha" operator="arithmetic" k2="-1" k3="1"/>
<feColorMatrix type="matrix" values="0 0 0 0 0.6625 0 0 0 0 0 0 0 0 0 0 0 0 0 0.5 0"/>
<feBlend mode="normal" in2="shape" result="effect1_innerShadow_32_2782"/>
</filter>
<filter id="filter12_f_32_2782" x="34.4963" y="15.7624" width="28.7756" height="28.7757" filterUnits="userSpaceOnUse" color-interpolation-filters="sRGB">
<feFlood flood-opacity="0" result="BackgroundImageFix"/>
<feBlend mode="normal" in="SourceGraphic" in2="BackgroundImageFix" result="shape"/>
<feGaussianBlur stdDeviation="5.13196" result="effect1_foregroundBlur_32_2782"/>
</filter>
<filter id="filter13_f_32_2782" x="40.3247" y="12.3534" width="14.4794" height="14.4795" filterUnits="userSpaceOnUse" color-interpolation-filters="sRGB">
<feFlood flood-opacity="0" result="BackgroundImageFix"/>
<feBlend mode="normal" in="SourceGraphic" in2="BackgroundImageFix" result="shape"/>
<feGaussianBlur stdDeviation="2.93255" result="effect1_foregroundBlur_32_2782"/>
</filter>
<filter id="filter14_d_32_2782" x="31.8" y="12.5" width="53.8823" height="85.0001" filterUnits="userSpaceOnUse" color-interpolation-filters="sRGB">
<feFlood flood-opacity="0" result="BackgroundImageFix"/>
<feColorMatrix in="SourceAlpha" type="matrix" values="0 0 0 0 0 0 0 0 0 0 0 0 0 0 0 0 0 0 127 0" result="hardAlpha"/>
<feOffset dy="5"/>
<feGaussianBlur stdDeviation="2.5"/>
<feComposite in2="hardAlpha" operator="out"/>
<feColorMatrix type="matrix" values="0 0 0 0 0 0 0 0 0 0 0 0 0 0 0 0 0 0 0.25 0"/>
<feBlend mode="normal" in2="BackgroundImageFix" result="effect1_dropShadow_32_2782"/>
<feBlend mode="normal" in="SourceGraphic" in2="effect1_dropShadow_32_2782" result="shape"/>
</filter>
<filter id="filter15_iii_32_2782" x="36.8" y="35.5206" width="44.4688" height="53.1525" filterUnits="userSpaceOnUse" color-interpolation-filters="sRGB">
<feFlood flood-opacity="0" result="BackgroundImageFix"/>
<feBlend mode="normal" in="SourceGraphic" in2="BackgroundImageFix" result="shape"/>
<feColorMatrix in="SourceAlpha" type="matrix" values="0 0 0 0 0 0 0 0 0 0 0 0 0 0 0 0 0 0 127 0" result="hardAlpha"/>
<feOffset dx="0.58651" dy="1.17302"/>
<feGaussianBlur stdDeviation="2.34604"/>
<feComposite in2="hardAlpha" operator="arithmetic" k2="-1" k3="1"/>
<feColorMatrix type="matrix" values="0 0 0 0 0 0 0 0 0 0 0 0 0 0 0 0 0 0 0.2 0"/>
<feBlend mode="multiply" in2="shape" result="effect1_innerShadow_32_2782"/>
<feColorMatrix in="SourceAlpha" type="matrix" values="0 0 0 0 0 0 0 0 0 0 0 0 0 0 0 0 0 0 127 0" result="hardAlpha"/>
<feOffset dy="-1.75952"/>
<feGaussianBlur stdDeviation="1.17302"/>
<feComposite in2="hardAlpha" operator="arithmetic" k2="-1" k3="1"/>
<feColorMatrix type="matrix" values="0 0 0 0 0 0 0 0 0 0 0 0 0 0 0 0 0 0 0.2 0"/>
<feBlend mode="normal" in2="effect1_innerShadow_32_2782" result="effect2_innerShadow_32_2782"/>
<feColorMatrix in="SourceAlpha" type="matrix" values="0 0 0 0 0 0 0 0 0 0 0 0 0 0 0 0 0 0 127 0" result="hardAlpha"/>
<feOffset dy="-4.69209"/>
<feGaussianBlur stdDeviation="2.93255"/>
<feComposite in2="hardAlpha" operator="arithmetic" k2="-1" k3="1"/>
<feColorMatrix type="matrix" values="0 0 0 0 0 0 0 0 0 0 0 0 0 0 0 0 0 0 0.15 0"/>
<feBlend mode="multiply" in2="effect2_innerShadow_32_2782" result="effect3_innerShadow_32_2782"/>
</filter>
<filter id="filter16_f_32_2782" x="49.3552" y="27.0877" width="34.5258" height="61.4406" filterUnits="userSpaceOnUse" color-interpolation-filters="sRGB">
<feFlood flood-opacity="0" result="BackgroundImageFix"/>
<feBlend mode="normal" in="SourceGraphic" in2="BackgroundImageFix" result="shape"/>
<feGaussianBlur stdDeviation="6.25" result="effect1_foregroundBlur_32_2782"/>
</filter>
<filter id="filter17_f_32_2782" x="49.7602" y="27.4927" width="33.5103" height="60.6306" filterUnits="userSpaceOnUse" color-interpolation-filters="sRGB">
<feFlood flood-opacity="0" result="BackgroundImageFix"/>
<feBlend mode="normal" in="SourceGraphic" in2="BackgroundImageFix" result="shape"/>
<feGaussianBlur stdDeviation="6.25" result="effect1_foregroundBlur_32_2782"/>
</filter>
<filter id="filter18_i_32_2782" x="42.0255" y="12.5" width="34.4576" height="33.7243" filterUnits="userSpaceOnUse" color-interpolation-filters="sRGB">
<feFlood flood-opacity="0" result="BackgroundImageFix"/>
<feBlend mode="normal" in="SourceGraphic" in2="BackgroundImageFix" result="shape"/>
<feColorMatrix in="SourceAlpha" type="matrix" values="0 0 0 0 0 0 0 0 0 0 0 0 0 0 0 0 0 0 127 0" result="hardAlpha"/>
<feOffset dx="1.46627" dy="0.733137"/>
<feGaussianBlur stdDeviation="7.33138"/>
<feComposite in2="hardAlpha" operator="arithmetic" k2="-1" k3="1"/>
<feColorMatrix type="matrix" values="0 0 0 0 0.6625 0 0 0 0 0 0 0 0 0 0 0 0 0 0.5 0"/>
<feBlend mode="normal" in2="shape" result="effect1_innerShadow_32_2782"/>
</filter>
<filter id="filter19_f_32_2782" x="51.9963" y="15.7624" width="28.7756" height="28.7757" filterUnits="userSpaceOnUse" color-interpolation-filters="sRGB">
<feFlood flood-opacity="0" result="BackgroundImageFix"/>
<feBlend mode="normal" in="SourceGraphic" in2="BackgroundImageFix" result="shape"/>
<feGaussianBlur stdDeviation="5.13196" result="effect1_foregroundBlur_32_2782"/>
</filter>
<filter id="filter20_f_32_2782" x="57.8247" y="12.3534" width="14.4794" height="14.4795" filterUnits="userSpaceOnUse" color-interpolation-filters="sRGB">
<feFlood flood-opacity="0" result="BackgroundImageFix"/>
<feBlend mode="normal" in="SourceGraphic" in2="BackgroundImageFix" result="shape"/>
<feGaussianBlur stdDeviation="2.93255" result="effect1_foregroundBlur_32_2782"/>
</filter>
<filter id="filter21_d_32_2782" x="49.3" y="12.5" width="53.8823" height="85.0001" filterUnits="userSpaceOnUse" color-interpolation-filters="sRGB">
<feFlood flood-opacity="0" result="BackgroundImageFix"/>
<feColorMatrix in="SourceAlpha" type="matrix" values="0 0 0 0 0 0 0 0 0 0 0 0 0 0 0 0 0 0 127 0" result="hardAlpha"/>
<feOffset dy="5"/>
<feGaussianBlur stdDeviation="2.5"/>
<feComposite in2="hardAlpha" operator="out"/>
<feColorMatrix type="matrix" values="0 0 0 0 0 0 0 0 0 0 0 0 0 0 0 0 0 0 0.25 0"/>
<feBlend mode="normal" in2="BackgroundImageFix" result="effect1_dropShadow_32_2782"/>
<feBlend mode="normal" in="SourceGraphic" in2="effect1_dropShadow_32_2782" result="shape"/>
</filter>
<filter id="filter22_iii_32_2782" x="54.3" y="35.5206" width="44.4688" height="53.1525" filterUnits="userSpaceOnUse" color-interpolation-filters="sRGB">
<feFlood flood-opacity="0" result="BackgroundImageFix"/>
<feBlend mode="normal" in="SourceGraphic" in2="BackgroundImageFix" result="shape"/>
<feColorMatrix in="SourceAlpha" type="matrix" values="0 0 0 0 0 0 0 0 0 0 0 0 0 0 0 0 0 0 127 0" result="hardAlpha"/>
<feOffset dx="0.58651" dy="1.17302"/>
<feGaussianBlur stdDeviation="2.34604"/>
<feComposite in2="hardAlpha" operator="arithmetic" k2="-1" k3="1"/>
<feColorMatrix type="matrix" values="0 0 0 0 0 0 0 0 0 0 0 0 0 0 0 0 0 0 0.2 0"/>
<feBlend mode="multiply" in2="shape" result="effect1_innerShadow_32_2782"/>
<feColorMatrix in="SourceAlpha" type="matrix" values="0 0 0 0 0 0 0 0 0 0 0 0 0 0 0 0 0 0 127 0" result="hardAlpha"/>
<feOffset dy="-1.75952"/>
<feGaussianBlur stdDeviation="1.17302"/>
<feComposite in2="hardAlpha" operator="arithmetic" k2="-1" k3="1"/>
<feColorMatrix type="matrix" values="0 0 0 0 0 0 0 0 0 0 0 0 0 0 0 0 0 0 0.2 0"/>
<feBlend mode="normal" in2="effect1_innerShadow_32_2782" result="effect2_innerShadow_32_2782"/>
<feColorMatrix in="SourceAlpha" type="matrix" values="0 0 0 0 0 0 0 0 0 0 0 0 0 0 0 0 0 0 127 0" result="hardAlpha"/>
<feOffset dy="-4.69209"/>
<feGaussianBlur stdDeviation="2.93255"/>
<feComposite in2="hardAlpha" operator="arithmetic" k2="-1" k3="1"/>
<feColorMatrix type="matrix" values="0 0 0 0 0 0 0 0 0 0 0 0 0 0 0 0 0 0 0.15 0"/>
<feBlend mode="multiply" in2="effect2_innerShadow_32_2782" result="effect3_innerShadow_32_2782"/>
</filter>
<filter id="filter23_f_32_2782" x="66.8552" y="27.0877" width="34.5258" height="61.4406" filterUnits="userSpaceOnUse" color-interpolation-filters="sRGB">
<feFlood flood-opacity="0" result="BackgroundImageFix"/>
<feBlend mode="normal" in="SourceGraphic" in2="BackgroundImageFix" result="shape"/>
<feGaussianBlur stdDeviation="6.25" result="effect1_foregroundBlur_32_2782"/>
</filter>
<filter id="filter24_f_32_2782" x="67.2602" y="27.4927" width="33.5103" height="60.6306" filterUnits="userSpaceOnUse" color-interpolation-filters="sRGB">
<feFlood flood-opacity="0" result="BackgroundImageFix"/>
<feBlend mode="normal" in="SourceGraphic" in2="BackgroundImageFix" result="shape"/>
<feGaussianBlur stdDeviation="6.25" result="effect1_foregroundBlur_32_2782"/>
</filter>
<filter id="filter25_i_32_2782" x="59.5255" y="12.5" width="34.4576" height="33.7243" filterUnits="userSpaceOnUse" color-interpolation-filters="sRGB">
<feFlood flood-opacity="0" result="BackgroundImageFix"/>
<feBlend mode="normal" in="SourceGraphic" in2="BackgroundImageFix" result="shape"/>
<feColorMatrix in="SourceAlpha" type="matrix" values="0 0 0 0 0 0 0 0 0 0 0 0 0 0 0 0 0 0 127 0" result="hardAlpha"/>
<feOffset dx="1.46627" dy="0.733137"/>
<feGaussianBlur stdDeviation="7.33138"/>
<feComposite in2="hardAlpha" operator="arithmetic" k2="-1" k3="1"/>
<feColorMatrix type="matrix" values="0 0 0 0 0.6625 0 0 0 0 0 0 0 0 0 0 0 0 0 0.5 0"/>
<feBlend mode="normal" in2="shape" result="effect1_innerShadow_32_2782"/>
</filter>
<filter id="filter26_f_32_2782" x="69.4963" y="15.7624" width="28.7756" height="28.7757" filterUnits="userSpaceOnUse" color-interpolation-filters="sRGB">
<feFlood flood-opacity="0" result="BackgroundImageFix"/>
<feBlend mode="normal" in="SourceGraphic" in2="BackgroundImageFix" result="shape"/>
<feGaussianBlur stdDeviation="5.13196" result="effect1_foregroundBlur_32_2782"/>
</filter>
<filter id="filter27_f_32_2782" x="75.3247" y="12.3534" width="14.4794" height="14.4795" filterUnits="userSpaceOnUse" color-interpolation-filters="sRGB">
<feFlood flood-opacity="0" result="BackgroundImageFix"/>
<feBlend mode="normal" in="SourceGraphic" in2="BackgroundImageFix" result="shape"/>
<feGaussianBlur stdDeviation="2.93255" result="effect1_foregroundBlur_32_2782"/>
</filter>
<linearGradient id="paint0_linear_32_2782" x1="31.6591" y1="75.4033" x2="27.7001" y2="40.2127" gradientUnits="userSpaceOnUse">
<stop stop-color="white"/>
<stop offset="1" stop-color="white" stop-opacity="0"/>
</linearGradient>
<linearGradient id="paint1_linear_32_2782" x1="49.1591" y1="75.4033" x2="45.2001" y2="40.2127" gradientUnits="userSpaceOnUse">
<stop stop-color="white"/>
<stop offset="1" stop-color="white" stop-opacity="0"/>
</linearGradient>
<linearGradient id="paint2_linear_32_2782" x1="66.6591" y1="75.4033" x2="62.7001" y2="40.2127" gradientUnits="userSpaceOnUse">
<stop stop-color="white"/>
<stop offset="1" stop-color="white" stop-opacity="0"/>
</linearGradient>
<linearGradient id="paint3_linear_32_2782" x1="84.1591" y1="75.4033" x2="80.2001" y2="40.2127" gradientUnits="userSpaceOnUse">
<stop stop-color="white"/>
<stop offset="1" stop-color="white" stop-opacity="0"/>
</linearGradient>
<clipPath id="clip0_32_2782">
<rect width="100" height="100" fill="white"/>
</clipPath>
</defs>
</svg>
